<svg xmlns="http://www.w3.org/2000/svg" viewBox="-797.781 615 38.029 38.029">
  <defs>
    <style>
      .cls-1 {
        fill: #add147;
      }

      .cls-2 {
        fill: #fff;
      }
    </style>
  </defs>
  <g id="Group_2406" data-name="Group 2406" transform="translate(-917.609 616.325)">
    <circle id="Ellipse_82" data-name="Ellipse 82" class="cls-1" cx="17.959" cy="17.959" r="17.959" transform="translate(119.828 34.527) rotate(-86.526)"/>
    <g id="Group_1061" data-name="Group 1061" transform="translate(131.672 7.447)">
      <path id="Path_1006" data-name="Path 1006" class="cls-2" d="M180.159,22.977c-1.509,1.132-3.018,2.188-4.6,3.32a18.3,18.3,0,0,1-1.056-1.509c1.736-1.207,3.4-2.49,5.131-3.7-1.736-1.283-3.4-2.49-5.131-3.7a18.3,18.3,0,0,0,1.056-1.509c1.509,1.132,3.094,2.188,4.6,3.32V10.3c2.943,2.113,5.81,4.226,8.678,6.263-2.037,1.509-4.15,2.943-6.187,4.452,2.037,1.509,4.15,2.943,6.187,4.452-2.867,2.113-5.81,4.15-8.678,6.263.075-2.867.075-5.81,0-8.753Zm5.584-6.414c-1.207-.905-2.415-1.736-3.7-2.641V19.2C183.328,18.374,184.536,17.468,185.743,16.563Zm0,8.979c-.377-.3-3.546-2.566-3.7-2.641v5.282h0C183.328,27.278,184.536,26.448,185.743,25.542Z" transform="translate(-174.5 -10.3)"/>
    </g>
  </g>
</svg>
