<svg xmlns="http://www.w3.org/2000/svg" viewBox="-1849.5 1464.5 153 46.6">
  <defs>
    <style>
      .cls-1 {
        fill: #2e6ab4;
        stroke: #1b447e;
        stroke-miterlimit: 10;
        stroke-width: 3px;
      }

      .cls-2, .cls-3 {
        fill: #fff;
      }

      .cls-3 {
        font-size: 13px;
        font-family: SegoeUI-Bold, Segoe UI;
        font-weight: 700;
      }

      .cls-4 {
        fill: #17323d;
      }

      .cls-5 {
        fill: #30515f;
      }

      .cls-6 {
        fill: #284653;
      }

      .cls-7 {
        fill: #e9e8e9;
      }

      .cls-8 {
        fill: #595a5c;
        opacity: 0.15;
      }
    </style>
  </defs>
  <g id="Group_2349" data-name="Group 2349" transform="translate(-1849.5 1464.5)">
    <path id="Path_1914" data-name="Path 1914" class="cls-1" d="M142.08,45.1H10.92A9.5,9.5,0,0,1,1.5,35.7V10.9a9.5,9.5,0,0,1,9.42-9.4H142.08a9.5,9.5,0,0,1,9.42,9.4V35.7A9.5,9.5,0,0,1,142.08,45.1Z" transform="translate(0)"/>
    <path id="Path_1915" data-name="Path 1915" class="cls-2" d="M11.463,42.325H31.73c4.71,0,8.563-3.42,8.563-7.552V10.552C40.293,6.42,36.439,3,31.73,3H11.463C6.753,3,2.9,6.42,2.9,10.552V34.774C2.9,38.906,6.753,42.325,11.463,42.325Z" transform="translate(0.598 0.637)"/>
    <text id="Автобусна_спирка" data-name="Автобусна
спирка" class="cls-3" transform="translate(51.306 18.805)"><tspan x="0" y="0">Автобусна</tspan><tspan x="0" y="16">спирка</tspan></text>
    <path id="Path_1916" data-name="Path 1916" class="cls-4" d="M14.324,26.695a1.949,1.949,0,0,1-2,1.995H11.9a1.949,1.949,0,0,1-2-1.995h0a1.949,1.949,0,0,1,2-1.995h.428a1.949,1.949,0,0,1,2,1.995Z" transform="translate(3.589 9.856)"/>
    <path id="Path_1917" data-name="Path 1917" class="cls-4" d="M23.424,26.695a1.949,1.949,0,0,1-2,1.995H21a1.949,1.949,0,0,1-2-1.995h0A1.949,1.949,0,0,1,21,24.7h.428a2.04,2.04,0,0,1,2,1.995Z" transform="translate(7.476 9.856)"/>
    <path id="Path_1918" data-name="Path 1918" class="cls-5" d="M33.132,16.961v-.712c0-.142,0-1-.428-1H30.848V13.257c0-.427-.428-2.85-5.709-3.7V9.267A1.583,1.583,0,0,0,23.569,7.7H16.861a1.583,1.583,0,0,0-1.57,1.567v.285c-5.138.855-5.566,3.277-5.566,3.562v1.995h-2a.455.455,0,0,0-.428.427v1.425a1.416,1.416,0,0,0-1,1.425v2.992A1.429,1.429,0,0,0,7.727,22.8a1.534,1.534,0,0,0,1.427-1.425V18.386a1.55,1.55,0,0,0-1-1.425v-.712c0-.142,0-.285-.143-.285H9.725V31.922a1.734,1.734,0,0,0,1.713,1.71H28.85c1,0,2-.427,2-1.71V15.964s1.57-.142,1.57.285v.712a1.416,1.416,0,0,0-1,1.425v2.992A1.429,1.429,0,0,0,32.846,22.8a1.534,1.534,0,0,0,1.427-1.425V18.386A1.732,1.732,0,0,0,33.132,16.961Z" transform="translate(2.051 2.634)"/>
    <path id="Path_1919" data-name="Path 1919" class="cls-6" d="M29.987,18.429v2.992a1.427,1.427,0,0,1-2.854,0V18.429a1.55,1.55,0,0,1,1-1.425v-.712c0-.427-1.57-.285-1.57-.285V31.965c0,1.282-1,1.71-2,1.71H16V7.6h3.283a1.583,1.583,0,0,1,1.57,1.567v.285c5.281.855,5.709,3.277,5.709,3.7v1.995h1.855c.571,0,.428.855.428,1v.712A1.667,1.667,0,0,1,29.987,18.429Z" transform="translate(6.195 2.591)"/>
    <path id="Path_1920" data-name="Path 1920" class="cls-7" d="M9.9,13.715a2.6,2.6,0,0,1,2.569-2.707c2.141-.285,9.562-.57,11.418-.142,1.713.427,3.425.427,3.425,2.992v7.837c0,1.14-.856,1.852-2.141,1.995a48.332,48.332,0,0,1-13.273,0,2.165,2.165,0,0,1-1.855-2.422C9.9,18.987,9.9,13.715,9.9,13.715Z" transform="translate(3.589 3.886)"/>
    <path id="Path_1921" data-name="Path 1921" class="cls-7" d="M23.464,23.613v1c0,.427-.143.712-.714.712H19.182c-.428,0-.571,0-.571-.57s-.285-.855.714-1.425a11.677,11.677,0,0,1,3.14-.712c.428-.142.856,0,.856.57S23.464,23.613,23.464,23.613Z" transform="translate(7.294 8.949)"/>
    <path id="Path_1922" data-name="Path 1922" class="cls-7" d="M9.9,23.613v1c0,.427.143.712.714.712h3.568c.428,0,.571,0,.571-.57s.285-.855-.714-1.425a27.919,27.919,0,0,0-3.14-.712c-.428-.142-.856,0-.856.57S9.9,23.613,9.9,23.613Z" transform="translate(3.589 8.949)"/>
    <path id="Path_1923" data-name="Path 1923" class="cls-8" d="M29.987,18.429v2.992a1.427,1.427,0,0,1-2.854,0V18.429a1.55,1.55,0,0,1,1-1.425v-.712c0-.427-1.57-.285-1.57-.285V31.965c0,1.282-1,1.71-2,1.71H16V7.6h3.283a1.583,1.583,0,0,1,1.57,1.567v.285c5.281.855,5.709,3.277,5.709,3.7v1.995h1.855c.571,0,.428.855.428,1v.712A1.667,1.667,0,0,1,29.987,18.429Z" transform="translate(6.195 2.591)"/>
  </g>
</svg>
