<svg xmlns="http://www.w3.org/2000/svg" viewBox="-2843.989 1231.103 38.996 39.04">
  <defs>
    <style>
      .cls-1 {
        fill: #0ca3d3;
      }

      .cls-2 {
        fill: #193d6a;
      }

      .cls-3 {
        fill: #fdfefe;
      }
    </style>
  </defs>
  <g id="Group_2407" data-name="Group 2407" transform="translate(-2939 500)">
    <path id="Path_1937" data-name="Path 1937" class="cls-1" d="M0,19.574A18.592,18.592,0,0,1,2.776,9.546,18.8,18.8,0,0,1,16.327.3,18.913,18.913,0,0,1,32.074,4.656,18.821,18.821,0,0,1,38.58,15.6a15.671,15.671,0,0,1,.373,3.937H12.763a4.218,4.218,0,0,1,.124-1.45,6.475,6.475,0,0,1,5.429-5.138,6.455,6.455,0,0,1,6.63,2.735,1,1,0,0,0,.912.456c1.865-.041,3.73,0,5.594,0a1.193,1.193,0,0,0,.539-.041,2.68,2.68,0,0,0-.166-.539A12.985,12.985,0,0,0,18.648,6.6a12.694,12.694,0,0,0-9.78,5.387,12.749,12.749,0,0,0-2.486,7.666C4.31,19.533,2.155,19.533,0,19.574Z" transform="translate(95.011 731.077)"/>
    <path id="Path_1938" data-name="Path 1938" class="cls-2" d="M12.8,47.1h26.19a18.666,18.666,0,0,1-3.647,11.354,19.129,19.129,0,0,1-13.634,8.039A19.548,19.548,0,0,1,.456,51.285,20.146,20.146,0,0,1,0,47.141q3.232-.062,6.465,0c.041.539.041,1.119.124,1.658A13.028,13.028,0,0,0,29.3,55.719a12.674,12.674,0,0,0,2.776-5.138c-.083,0-.124-.041-.166-.041h-6.34c-.249,0-.332.124-.456.29a6.574,6.574,0,0,1-6.879,2.859A6.659,6.659,0,0,1,12.8,47.1Z" transform="translate(95.011 703.51)"/>
    <path id="Path_1939" data-name="Path 1939" class="cls-3" d="M21.882,28.67A6.721,6.721,0,0,0,34.189,32.4a.562.562,0,0,1,.456-.29h6.34a.313.313,0,0,1,.166.041,13.042,13.042,0,0,1-14.007,9.49,13.029,13.029,0,0,1-11.52-11.272c-.083-.539-.083-1.119-.124-1.658A13.087,13.087,0,0,1,27.766,15.658a12.985,12.985,0,0,1,13.178,8.951c.041.166.124.373.166.539a1.234,1.234,0,0,1-.539.041H34.977a1,1,0,0,1-.912-.456A6.455,6.455,0,0,0,27.435,22a6.475,6.475,0,0,0-5.429,5.138A3.917,3.917,0,0,0,21.882,28.67Z" transform="translate(85.934 721.94)"/>
  </g>
</svg>
