<svg xmlns="http://www.w3.org/2000/svg" viewBox="-909 1234.837 113.796 63.499">
  <defs>
    <style>
      .cls-1 {
        fill: #174a96;
      }

      .cls-2 {
        fill: #fff;
      }

      .cls-3 {
        fill: #184b96;
      }

      .cls-4 {
        fill: #194b97;
      }

      .cls-5 {
        fill: #26509a;
      }

      .cls-6 {
        fill: #214e99;
      }

      .cls-7 {
        fill: #8b93c3;
      }

      .cls-8 {
        fill: #214e98;
      }

      .cls-9 {
        fill: #1c4c97;
      }
    </style>
  </defs>
  <g id="Group_2415" data-name="Group 2415" transform="translate(-909.089 1234.847)">
    <g id="Group_2407" data-name="Group 2407" transform="translate(60.063 0.101)">
      <path id="Path_1937" data-name="Path 1937" class="cls-1" d="M162.94,20.226a1.6,1.6,0,0,0-1.171-.426h-4.363c-.053.053-.053.106-.106.213.745-.16.8.266.8.745v1.969c0,.532.053,1.011-.692,1.117h3.246v-.106c-.053,0-.106-.053-.213-.053-.9.053-.585-.585-.639-1.011-.053-.585.319-.426.639-.426a5.893,5.893,0,0,0,1.916-.213A1.1,1.1,0,0,0,162.94,20.226Zm-2.661,1.65c-.9.053-.319-.639-.532-.958.106-.372-.266-.958.532-.958.692,0,1.117.319,1.117.9C161.4,21.556,161.025,21.875,160.28,21.875Z" transform="translate(-133.621 -9.371)"/>
      <path id="Path_1938" data-name="Path 1938" class="cls-1" d="M179.256,41.7c.319,0,.372.16.372.426s-.053.426-.372.426c-.692,0-1.437.106-1.756-.8C178.085,41.7,178.671,41.7,179.256,41.7Z" transform="translate(-143.073 -19.618)"/>
      <path id="Path_1939" data-name="Path 1939" class="cls-1" d="M174.893,23.838H171.7c.745,0,.745-.479.745-1.064a12.158,12.158,0,0,1,0-1.969c.053-.532-.106-.851-.692-.9h3.086a1.117,1.117,0,0,0-.639,1.49c.266.585.958.16,1.383.266.266.053.479,0,.426-.372-.106-.479.426-1.277-.639-1.383H178.4c-.692.053-.692.532-.639,1.011,0,.639.053,1.33,0,1.969,0,.532.053.9.692.958h-3.193a1.1,1.1,0,0,0,.692-1.6c-.266-.639-.958-.16-1.437-.266-.426-.106-.426.266-.372.532C174.307,22.986,173.828,23.784,174.893,23.838Z" transform="translate(-140.359 -9.418)"/>
      <path id="Path_1940" data-name="Path 1940" class="cls-1" d="M152.411,42.145a4.929,4.929,0,0,0-1.383,2.714c-.053.213,0,.372.266.319h.8c.213,0,.319-.053.319-.319Zm0,0a4.929,4.929,0,0,0-1.383,2.714c-.053.213,0,.372.266.319h.8c.213,0,.319-.053.319-.319Zm0,0a4.929,4.929,0,0,0-1.383,2.714c-.053.213,0,.372.266.319h.8c.213,0,.319-.053.319-.319Zm0,0a4.929,4.929,0,0,0-1.383,2.714c-.053.213,0,.372.266.319h.8c.213,0,.319-.053.319-.319Zm0,0a4.929,4.929,0,0,0-1.383,2.714c-.053.213,0,.372.266.319h.8c.213,0,.319-.053.319-.319Zm0,0a4.929,4.929,0,0,0-1.383,2.714c-.053.213,0,.372.266.319h.8c.213,0,.319-.053.319-.319Zm14.154,7.609c-.585-2.554-1.437-5-2.182-7.449a5.727,5.727,0,0,1-.213-2.5,2.685,2.685,0,0,1,1.543-2.022c-.692,2.235-.479,3.672.9,4.789V36.346a.675.675,0,0,0-.319.053,4.412,4.412,0,0,0-2.98,5.427c.692,2.5,1.437,4.949,2.128,7.4a4.759,4.759,0,0,1,.106,2.448c-.319,1.064-2.128,1.7-2.927,1.011-.9-.851-1.756-1.7-2.714-2.554a.831.831,0,0,1-.213-.958c.745-2.767,1.543-5.481,2.235-8.248a15.367,15.367,0,0,0,.745-4.416,3.241,3.241,0,0,0-2.341-3.193c-.319-.106-.585-.266-.479-.639.053-.266-.106-.426-.372-.426-2.235.053-4.523-.266-6.7.9-1.011.532-1.064.426-1.064,1.6,0,1.277,0,1.277,1.224,1.277.372,0,.692.106.692.532s-.319.532-.692.585c-1.117.053-1.117.053-1.117,1.171v.532c-.053.319.053.585.532.532-.8.532-1.543,1.011-2.288,1.543a.612.612,0,0,1-.9-.106c-.958-.958-1.916-1.862-2.927-2.767-.426-.426-.8-.8-.692-1.437.053-.426-.16-.479-.532-.479-.532.053-1.064.053-1.6.053-.16,0-.266,0-.319-.16s-.053-.319.16-.372a2.157,2.157,0,0,0,.479-.266,3.016,3.016,0,0,0,1.011-3.884,2.966,2.966,0,0,0-3.831-1.33,2.974,2.974,0,0,0-.266,5.321c.213.106.479.213.372.532s-.372.16-.585.16a9.419,9.419,0,0,1-1.224-.053c-.426-.053-.585.106-.532.532a1.05,1.05,0,0,1-.319,1.064c-1.171,1.064-2.288,2.128-3.459,3.246-.213.16-.372.266-.639.106-.745-.532-1.543-1.011-2.341-1.49.8-.106.426-.692.479-1.011.053-.426.213-.958-.053-1.277-.213-.266-.745-.053-1.117-.106a.574.574,0,0,1-.639-.585c0-.426.266-.532.639-.532h.266c.958,0,.958,0,.958-.958v-.16c0-1.383,0-1.383-1.224-1.862a7.762,7.762,0,0,0-2.341-.851c-1.33-.053-2.714,0-4.044,0-.319,0-.532.053-.426.426.053.426-.16.532-.479.639a3.319,3.319,0,0,0-2.341,2.82,8.193,8.193,0,0,0,.266,3.033c.9,3.352,1.809,6.7,2.714,10.11a.678.678,0,0,1-.213.8c-.851.8-1.756,1.543-2.5,2.394-.692.745-1.437.426-2.128.266a1.445,1.445,0,0,1-1.064-1.49,6.846,6.846,0,0,1,.372-2.714l1.916-6.385a4.492,4.492,0,0,0-2.714-5.64c-.426-.16-.585-.16-.585.372.053,1.383,0,2.767,0,4.1v1.756a4.151,4.151,0,0,0,.851-5.055,2.988,2.988,0,0,1,1.6,2.128,5.7,5.7,0,0,1-.16,2.5c-.692,2.394-1.49,4.736-2.128,7.13-.692,2.714.426,4.257,3.193,4.416.372,0,.426.16.426.479v2.448c0,.958-.16,1.171-1.064,1.33-.372.053-.426.16-.426.532v3.831c0,.372.106.532.479.532.585.053,1.064.266,1.117.958.053.585-.266,1.383.16,1.7s1.171.106,1.809.106h10.749c.213,0,.532.16.639-.266.426-2.022-.266-2.927-2.288-3.033H132.4a1.628,1.628,0,0,1-1.756-1.49,1.574,1.574,0,0,1,1.383-1.969,3.341,3.341,0,0,1,1.011-.16c.585.053.639-.266.639-.745V54.277c0-1.277,0-1.277-1.33-1.33-.053,0-.106-.053-.213-.106,1.809-1.6,3.565-3.086,5.321-4.629a.9.9,0,0,1,.532-.16h2.873c.372,0,.479.106.479.479V61.78c0,.479-.213.479-.532.426a1.794,1.794,0,0,1-1.543-1.969V53.586c0-.532-.16-.692-.639-.639a17.189,17.189,0,0,1-2.341,0c-.426,0-.585.16-.585.585v7.183a4.716,4.716,0,0,0,1.543,3.618c.479.479,1.011.9,1.49,1.33a3.15,3.15,0,0,1,1.171,1.969c.053.426.266.479.639.479,1.011,0,2.075-.053,3.086,0,.639,0,1.064,0,1.117-.8,0-.585.479-1.011.9-1.437.372-.319.745-.639,1.064-.958a4.88,4.88,0,0,0,2.022-3.672c.053-2.607,0-5.268.053-7.875,0-.319-.106-.426-.426-.426H145.76c-.426,0-.532.16-.479.532V60.29a1.834,1.834,0,0,1-1.543,1.969c-.319.053-.532,0-.479-.372V48.637c0-.426.16-.479.532-.479h2.661a1.208,1.208,0,0,1,.851.319c1.49,1.277,2.98,2.554,4.416,3.884.213.213.532.372.692.692h-1.064c-.426-.053-.479.16-.479.532v4.842c0,.372.106.479.479.479a4.482,4.482,0,0,1,1.437.213,1.582,1.582,0,0,1,1.224,1.809,1.648,1.648,0,0,1-1.6,1.65,9.633,9.633,0,0,0-1.224.16,1.462,1.462,0,0,0-1.383,1.7,4,4,0,0,1,0,.8c-.053.532.106.745.692.745,3.725-.053,7.449,0,11.174,0,1.437,0,1.437,0,1.437-1.437,0-.958.16-1.224,1.064-1.33.426-.053.479-.213.426-.585V58.854c0-.426-.106-.532-.532-.585-.8-.106-1.011-.426-1.011-1.277,0-.745.053-1.49,0-2.182-.053-.585.106-.851.8-.8a2.8,2.8,0,0,0,2.394-.958A5.107,5.107,0,0,0,166.565,49.755Zm-26.5-16.921a2.049,2.049,0,0,1,4.1,0,2.067,2.067,0,0,1-2.075,2.022A1.988,1.988,0,0,1,140.067,32.834Zm-3.831,8.194,3.033-2.873c.16-.16.372-.266.372-.479-.106-.639.319-.532.692-.532h3.778c.319,0,.532,0,.479.426-.053.319.213.479.372.692,1.171,1.117,2.341,2.182,3.565,3.3a.734.734,0,0,1,.16.213c-1.171.851-1.277.958-2.128-.16a5.019,5.019,0,0,0-4.736-1.969,4.391,4.391,0,0,0-3.778,1.6,6.708,6.708,0,0,1-1.064,1.064c-.213.213-.372.213-.639.053C135.437,41.773,135.437,41.773,136.235,41.028Zm7.556,2.022c-.639.106-.8-.16-.745-.745a5.126,5.126,0,0,0,0-.9c.053-.266-.16-.639.16-.692a1.1,1.1,0,0,1,1.064.106l2.288,2.288c-.745.479-1.437.958-2.288,1.49V43.529C144.377,43.156,144.217,42.944,143.791,43.05Zm-3.938,1.543c-.8-.532-1.543-.958-2.288-1.49.8-.745,1.49-1.437,2.182-2.182a1,1,0,0,1,1.117-.213c.372.106.16.532.213.8a2.563,2.563,0,0,1,0,.639c.106.692-.053,1.117-.851.958-.266-.053-.372.106-.372.372Zm-7.237,9.844a23.081,23.081,0,0,0,0,2.714c0,.479-.106.639-.585.692a2.764,2.764,0,0,0-2.5,3.405,2.438,2.438,0,0,0,2.235,2.075c.426.053.8.053,1.224.106.372.053.585.16.692.532.16.692.053.8-.639.8h-3.938c-.266,0-.426-.053-.479-.372-.16-1.6-.319-1.756-1.916-1.916a1.738,1.738,0,0,1-1.7-2.182,1.839,1.839,0,0,1,1.756-1.437c1.277-.16,1.33-.16,1.277-1.383a2.108,2.108,0,0,1,1.064-2.235,4.018,4.018,0,0,0,.745-.585,2.463,2.463,0,0,1,2.128-.8C132.4,53.8,132.617,53.905,132.617,54.437Zm10.482,8.62a2.793,2.793,0,0,0,2.927-2.927c0-1.862.053-3.725,0-5.64,0-.8.426-.585.851-.639.426,0,.8-.053.745.585-.053,1.064,0,2.075,0,3.352a22.754,22.754,0,0,1-.16,3.725,3.425,3.425,0,0,1-1.171,2.022A14.111,14.111,0,0,0,144.27,65.5a2.608,2.608,0,0,0-.585,1.064c-.053.266-.16.372-.479.372-.372-.053-.266-.319-.266-.479v-1.49c0-.319-.106-.426-.426-.426-1.383-.053-1.383-.106-1.383,1.33v.8c0,.16-.053.319-.266.266-.16,0-.319.053-.372-.16-.319-1.383-1.437-2.182-2.394-2.98a4.518,4.518,0,0,1-1.6-3.459c-.053-1.969,0-3.991,0-5.96,0-.426.16-.532.532-.532,1.33.053,1.064-.106,1.064,1.011v5a4.565,4.565,0,0,0,.106,1.171A2.793,2.793,0,0,0,140.918,63C141.716,63.057,142.408,63.057,143.1,63.057Zm12.451,1.117c0,.426-.106.585-.532.585-.639-.053-1.33,0-1.969,0h-1.916c-.213,0-.585.213-.639-.266,0-.426-.053-.9.532-1.011.319-.053.692-.053,1.011-.106a2.579,2.579,0,0,0,2.661-2.554A2.646,2.646,0,0,0,152.3,57.9c-.639-.106-.8-.319-.8-.9a22.186,22.186,0,0,0,0-2.661c0-.372.106-.479.479-.479a3.537,3.537,0,0,1,2.448.851,3.106,3.106,0,0,1,1.6,3.405c-.106.532.106.745.639.692a2.62,2.62,0,0,1,1.543.319,1.75,1.75,0,0,1,.9,1.916,1.6,1.6,0,0,1-1.49,1.437,2.386,2.386,0,0,1-.585.053C155.923,62.632,155.551,63,155.551,64.175ZM163,58.8c.319.106.426.266.372.585a12,12,0,0,0,0,1.383,1.4,1.4,0,0,1-.8,1.65c-.639.266-.692.958-.639,1.6.053.479-.053.692-.639.692-1.383-.053-2.767,0-4.2,0-.266,0-.639.213-.639-.372,0-.426,0-.851.585-.9a8.261,8.261,0,0,0,1.117-.213,2.4,2.4,0,0,0,1.916-2.661,2.551,2.551,0,0,0-2.394-2.661c-.639-.053-.8-.266-.692-.851a2.38,2.38,0,0,0-1.064-2.394c-2.873-2.394-5.694-4.842-8.567-7.29a1.343,1.343,0,0,0-.9-.319h-8.886a1.119,1.119,0,0,0-.8.266c-3.086,2.661-6.172,5.268-9.259,7.875-.479.372-.426.8-.426,1.277v.692c.053.426-.106.639-.585.692a2.74,2.74,0,0,0-2.394,3.778,2.483,2.483,0,0,0,2.075,1.65,4.107,4.107,0,0,0,.8.106c.639.053.585.532.585.958,0,.532-.426.319-.639.319h-4.257c-.372,0-.532-.106-.479-.479a1.848,1.848,0,0,0-1.277-2.182c-.266-.106-.213-.319-.213-.532V60.077c-.053-.692-.053-1.277.8-1.6.532-.16.692-.745.692-1.33,0-1.117.053-2.235,0-3.352a1.34,1.34,0,0,1,.479-1.064c.9-.8,1.756-1.65,2.661-2.448a.812.812,0,0,0,.266-.958c-.958-3.405-1.916-6.758-2.873-10.163a7.849,7.849,0,0,1-.213-3.352,1.882,1.882,0,0,1,.851-1.437c.692-.479.8-.426,1.277.213a2.042,2.042,0,0,0,1.6.8c.16,0,.426.106.426-.266,0-.213.106-.532-.319-.532a1.16,1.16,0,0,1-1.117-1.117c-.053-.266,0-.426.319-.426,1.862,0,3.725-.16,5.481.851.479.266.372.585.426.958,0,.479-.319.266-.532.319a1.408,1.408,0,0,0-1.224,1.33,1.438,1.438,0,0,0,1.383,1.33c.16,0,.319-.053.372.213,0,.319-.213.213-.372.213h-3.565c-.319,0-.585-.053-.585-.426,0-.479-.372-.319-.585-.319-.319-.053-.319.213-.319.426a1.131,1.131,0,0,0,1.117,1.277c.745.053,1.437.053,2.182.053a1.752,1.752,0,0,1,1.011.319c2.767,1.756,5.534,3.459,8.248,5.268a3.3,3.3,0,0,0,2.128.319c.372,0,.213-.372.213-.585-.053-.479.106-.745.639-.639a1.758,1.758,0,0,0,.745,0c.692-.053,1.224-.053,1.064.9-.053.16,0,.372.213.319.692-.053,1.437.16,2.128-.319,2.714-1.756,5.427-3.459,8.141-5.161a2.037,2.037,0,0,1,1.33-.372h1.969c.8-.053,1.117-.426,1.117-1.171,0-.213.106-.532-.266-.532-.266,0-.585-.16-.639.319-.053.319-.319.426-.639.426H153.21c-.16,0-.426.106-.426-.213,0-.266.266-.213.426-.213a1.372,1.372,0,0,0,1.277-1.277,1.271,1.271,0,0,0-1.117-1.383c-.266-.053-.585.053-.585-.479a.911.911,0,0,1,.479-.851c1.7-1.011,3.618-.8,5.481-.8.319,0,.319.16.266.372A1.148,1.148,0,0,1,158,34.643c-.372.053-.426.266-.426.532,0,.426.372.266.585.266a1.689,1.689,0,0,0,1.6-1.064c.106-.319.266-.319.585-.213a2.119,2.119,0,0,1,1.437,2.128,14.764,14.764,0,0,1-.745,4.789l-2.394,8.3a.913.913,0,0,0,.266,1.011c.9.851,1.809,1.7,2.714,2.5a1.193,1.193,0,0,1,.426,1.011c-.053,1.117,0,2.182,0,3.3A1.339,1.339,0,0,0,163,58.8ZM152.411,42.145a4.929,4.929,0,0,0-1.383,2.714c-.053.213,0,.372.266.319h.8c.213,0,.319-.053.319-.319Zm0,0a4.929,4.929,0,0,0-1.383,2.714c-.053.213,0,.372.266.319h.8c.213,0,.319-.053.319-.319Zm0,0a4.929,4.929,0,0,0-1.383,2.714c-.053.213,0,.372.266.319h.8c.213,0,.319-.053.319-.319Zm0,0a4.929,4.929,0,0,0-1.383,2.714c-.053.213,0,.372.266.319h.8c.213,0,.319-.053.319-.319Zm0,0a4.929,4.929,0,0,0-1.383,2.714c-.053.213,0,.372.266.319h.8c.213,0,.319-.053.319-.319Z" transform="translate(-115.058 -14.104)"/>
      <path id="Path_1941" data-name="Path 1941" class="cls-1" d="M165.9,11.853c-1.011.053-2.075,0-3.086.053-.585.053-.692-.16-.692-.745V.892c0-.479-.106-.639-.585-.639h-8.354c-.479,0-.639.16-.585.639.053.8,0,1.65,0,2.448,0,.319-.053.479-.426.479h-6.6c-.372,0-.479-.106-.479-.479V.785c0-.372-.053-.585-.532-.585h-9.684c-.372,0-.479.106-.479.479V3.339c0,.319-.106.426-.426.426h-6.651c-.372,0-.479-.106-.479-.479V.839c0-.479-.106-.639-.585-.639h-8.354c-.479,0-.532.16-.532.585V11.215c0,.532-.16.639-.639.639-1.117-.053-2.235,0-3.352,0-.479,0-.585.106-.585.585V46.812a6.514,6.514,0,0,0,4.15,6.385q11.174,5.108,22.242,10.27a1.127,1.127,0,0,0,1.011,0c7.449-3.459,14.952-6.917,22.4-10.376a6.187,6.187,0,0,0,3.884-5.161,10.251,10.251,0,0,0,.053-1.277V12.6C166.755,11.96,166.543,11.8,165.9,11.853Zm-.16,33.1a13.673,13.673,0,0,1-.266,3.618,5.384,5.384,0,0,1-2.873,3.565L140.416,62.509a1.056,1.056,0,0,1-1.117,0L117.11,52.133a5.249,5.249,0,0,1-3.086-5.108c-.053-5.055,0-10.11,0-15.165v-18.3c0-.585.16-.745.692-.692,1.117.053,2.182,0,3.3.053.532,0,.639-.16.639-.692V2.062c0-.639.16-.8.8-.8,2.075.053,4.1.053,6.172,0,.426,0,.585.106.532.532-.053.8,0,1.6,0,2.394,0,.372.053.532.479.532H135.2c.426,0,.479-.16.479-.532V1.8c0-.372.053-.532.479-.532h7.609c.426,0,.479.16.479.532V4.244c0,.372.106.479.479.479h8.567c.426,0,.479-.16.479-.532V1.8c0-.372.053-.532.479-.532h6.6c.532,0,.479.266.479.585v10.27c0,.585.106.745.692.692,1.064-.053,2.128.053,3.246-.053.639-.053.745.213.745.745C165.744,24.091,165.744,34.521,165.744,44.95Z" transform="translate(-112.8 -0.2)"/>
      <path id="Path_1942" data-name="Path 1942" class="cls-2" d="M162.94,20.226a1.6,1.6,0,0,0-1.171-.426h-4.363c-.053.053-.053.106-.106.213.745-.16.8.266.8.745v1.969c0,.532.053,1.011-.692,1.117h3.246v-.106c-.053,0-.106-.053-.213-.053-.9.053-.585-.585-.639-1.011-.053-.585.319-.426.639-.426a5.893,5.893,0,0,0,1.916-.213A1.1,1.1,0,0,0,162.94,20.226Zm-2.661,1.65c-.9.053-.319-.639-.532-.958.106-.372-.266-.958.532-.958.692,0,1.117.319,1.117.9C161.4,21.556,161.025,21.875,160.28,21.875Z" transform="translate(-133.621 -9.371)"/>
      <path id="Path_1943" data-name="Path 1943" class="cls-2" d="M179.256,41.7c.319,0,.372.16.372.426s-.053.426-.372.426c-.692,0-1.437.106-1.756-.8C178.085,41.7,178.671,41.7,179.256,41.7Z" transform="translate(-143.073 -19.618)"/>
      <path id="Path_1944" data-name="Path 1944" class="cls-2" d="M172.5,22.773a12.158,12.158,0,0,1,0-1.969c.053-.532-.106-.851-.692-.9h3.086a1.117,1.117,0,0,0-.639,1.49c.266.585.958.16,1.383.266.266.053.479,0,.426-.372-.106-.479.426-1.277-.639-1.383h3.033c-.692.053-.692.532-.639,1.011,0,.639.053,1.33,0,1.969,0,.532.053.9.692.958h-3.193a1.1,1.1,0,0,0,.692-1.6c-.266-.639-.958-.16-1.437-.266-.426-.106-.426.266-.372.532.106.479-.426,1.33.692,1.33H171.7C172.5,23.838,172.5,23.305,172.5,22.773Z" transform="translate(-140.359 -9.418)"/>
      <path id="Path_1945" data-name="Path 1945" class="cls-2" d="M152.411,42.145a4.929,4.929,0,0,0-1.383,2.714c-.053.213,0,.372.266.319h.8c.213,0,.319-.053.319-.319Zm0,0a4.929,4.929,0,0,0-1.383,2.714c-.053.213,0,.372.266.319h.8c.213,0,.319-.053.319-.319Zm0,0a4.929,4.929,0,0,0-1.383,2.714c-.053.213,0,.372.266.319h.8c.213,0,.319-.053.319-.319Zm0,0a4.929,4.929,0,0,0-1.383,2.714c-.053.213,0,.372.266.319h.8c.213,0,.319-.053.319-.319Zm0,0a4.929,4.929,0,0,0-1.383,2.714c-.053.213,0,.372.266.319h.8c.213,0,.319-.053.319-.319Zm0,0a4.929,4.929,0,0,0-1.383,2.714c-.053.213,0,.372.266.319h.8c.213,0,.319-.053.319-.319Zm14.154,7.609c-.585-2.554-1.437-5-2.182-7.449a5.727,5.727,0,0,1-.213-2.5,2.685,2.685,0,0,1,1.543-2.022c-.692,2.235-.479,3.672.9,4.789V36.346a.675.675,0,0,0-.319.053,4.412,4.412,0,0,0-2.98,5.427c.692,2.5,1.437,4.949,2.128,7.4a4.759,4.759,0,0,1,.106,2.448c-.319,1.064-2.128,1.7-2.927,1.011-.9-.851-1.756-1.7-2.714-2.554a.831.831,0,0,1-.213-.958c.745-2.767,1.543-5.481,2.235-8.248a15.367,15.367,0,0,0,.745-4.416,3.241,3.241,0,0,0-2.341-3.193c-.319-.106-.585-.266-.479-.639.053-.266-.106-.426-.372-.426-2.235.053-4.523-.266-6.7.9-1.011.532-1.064.426-1.064,1.6,0,1.277,0,1.277,1.224,1.277.372,0,.692.106.692.532s-.319.532-.692.585c-1.117.053-1.117.053-1.117,1.171v.532c-.053.319.053.585.532.532-.8.532-1.543,1.011-2.288,1.543a.612.612,0,0,1-.9-.106c-.958-.958-1.916-1.862-2.927-2.767-.426-.426-.8-.8-.692-1.437.053-.426-.16-.479-.532-.479-.532.053-1.064.053-1.6.053-.16,0-.266,0-.319-.16s-.053-.319.16-.372a2.157,2.157,0,0,0,.479-.266,3.016,3.016,0,0,0,1.011-3.884,2.966,2.966,0,0,0-3.831-1.33,2.974,2.974,0,0,0-.266,5.321c.213.106.479.213.372.532s-.372.16-.585.16a9.419,9.419,0,0,1-1.224-.053c-.426-.053-.585.106-.532.532a1.05,1.05,0,0,1-.319,1.064c-1.171,1.064-2.288,2.128-3.459,3.246-.213.16-.372.266-.639.106-.745-.532-1.543-1.011-2.341-1.49.8-.106.426-.692.479-1.011.053-.426.213-.958-.053-1.277-.213-.266-.745-.053-1.117-.106a.574.574,0,0,1-.639-.585c0-.426.266-.532.639-.532h.266c.958,0,.958,0,.958-.958v-.16c0-1.383,0-1.383-1.224-1.862a7.762,7.762,0,0,0-2.341-.851c-1.33-.053-2.714,0-4.044,0-.319,0-.532.053-.426.426.053.426-.16.532-.479.639a3.319,3.319,0,0,0-2.341,2.82,8.193,8.193,0,0,0,.266,3.033c.9,3.352,1.809,6.7,2.714,10.11a.678.678,0,0,1-.213.8c-.851.8-1.756,1.543-2.5,2.394-.692.745-1.437.426-2.128.266a1.445,1.445,0,0,1-1.064-1.49,6.846,6.846,0,0,1,.372-2.714l1.916-6.385a4.492,4.492,0,0,0-2.714-5.64c-.426-.16-.585-.16-.585.372.053,1.383,0,2.767,0,4.1v1.756a4.151,4.151,0,0,0,.851-5.055,2.988,2.988,0,0,1,1.6,2.128,5.7,5.7,0,0,1-.16,2.5c-.692,2.394-1.49,4.736-2.128,7.13-.692,2.714.426,4.257,3.193,4.416.372,0,.426.16.426.479v2.448c0,.958-.16,1.171-1.064,1.33-.372.053-.426.16-.426.532v3.831c0,.372.106.532.479.532.585.053,1.064.266,1.117.958.053.585-.266,1.383.16,1.7s1.171.106,1.809.106h10.749c.213,0,.532.16.639-.266.426-2.022-.266-2.927-2.288-3.033H132.4a1.628,1.628,0,0,1-1.756-1.49,1.574,1.574,0,0,1,1.383-1.969,3.341,3.341,0,0,1,1.011-.16c.585.053.639-.266.639-.745V54.277c0-1.277,0-1.277-1.33-1.33-.053,0-.106-.053-.213-.106,1.809-1.6,3.565-3.086,5.321-4.629a.9.9,0,0,1,.532-.16h2.873c.372,0,.479.106.479.479V61.78c0,.479-.213.479-.532.426a1.794,1.794,0,0,1-1.543-1.969V53.586c0-.532-.16-.692-.639-.639a17.189,17.189,0,0,1-2.341,0c-.426,0-.585.16-.585.585v7.183a4.716,4.716,0,0,0,1.543,3.618c.479.479,1.011.9,1.49,1.33a3.15,3.15,0,0,1,1.171,1.969c.053.426.266.479.639.479,1.011,0,2.075-.053,3.086,0,.639,0,1.064,0,1.117-.8,0-.585.479-1.011.9-1.437.372-.319.745-.639,1.064-.958a4.88,4.88,0,0,0,2.022-3.672c.053-2.607,0-5.268.053-7.875,0-.319-.106-.426-.426-.426H145.76c-.426,0-.532.16-.479.532V60.29a1.834,1.834,0,0,1-1.543,1.969c-.319.053-.532,0-.479-.372V48.637c0-.426.16-.479.532-.479h2.661a1.208,1.208,0,0,1,.851.319c1.49,1.277,2.98,2.554,4.416,3.884.213.213.532.372.692.692h-1.064c-.426-.053-.479.16-.479.532v4.842c0,.372.106.479.479.479a4.482,4.482,0,0,1,1.437.213,1.582,1.582,0,0,1,1.224,1.809,1.648,1.648,0,0,1-1.6,1.65,9.633,9.633,0,0,0-1.224.16,1.462,1.462,0,0,0-1.383,1.7,4,4,0,0,1,0,.8c-.053.532.106.745.692.745,3.725-.053,7.449,0,11.174,0,1.437,0,1.437,0,1.437-1.437,0-.958.16-1.224,1.064-1.33.426-.053.479-.213.426-.585V58.854c0-.426-.106-.532-.532-.585-.8-.106-1.011-.426-1.011-1.277,0-.745.053-1.49,0-2.182-.053-.585.106-.851.8-.8a2.8,2.8,0,0,0,2.394-.958A5.107,5.107,0,0,0,166.565,49.755Zm-26.5-16.921a2.049,2.049,0,0,1,4.1,0,2.067,2.067,0,0,1-2.075,2.022A1.988,1.988,0,0,1,140.067,32.834Zm-3.831,8.194,3.033-2.873c.16-.16.372-.266.372-.479-.106-.639.319-.532.692-.532h3.778c.319,0,.532,0,.479.426-.053.319.213.479.372.692,1.171,1.117,2.341,2.182,3.565,3.3a.734.734,0,0,1,.16.213c-1.171.851-1.277.958-2.128-.16a5.019,5.019,0,0,0-4.736-1.969,4.391,4.391,0,0,0-3.778,1.6,6.708,6.708,0,0,1-1.064,1.064c-.213.213-.372.213-.639.053C135.437,41.773,135.437,41.773,136.235,41.028Zm7.556,2.022c-.639.106-.8-.16-.745-.745a5.126,5.126,0,0,0,0-.9c.053-.266-.16-.639.16-.692a1.1,1.1,0,0,1,1.064.106l2.288,2.288c-.745.479-1.437.958-2.288,1.49V43.529C144.377,43.156,144.217,42.944,143.791,43.05Zm-3.938,1.543c-.8-.532-1.543-.958-2.288-1.49.8-.745,1.49-1.437,2.182-2.182a1,1,0,0,1,1.117-.213c.372.106.16.532.213.8a2.563,2.563,0,0,1,0,.639c.106.692-.053,1.117-.851.958-.266-.053-.372.106-.372.372Zm-7.237,9.844a23.081,23.081,0,0,0,0,2.714c0,.479-.106.639-.585.692a2.764,2.764,0,0,0-2.5,3.405,2.438,2.438,0,0,0,2.235,2.075c.426.053.8.053,1.224.106.372.053.585.16.692.532.16.692.053.8-.639.8h-3.938c-.266,0-.426-.053-.479-.372-.16-1.6-.319-1.756-1.916-1.916a1.738,1.738,0,0,1-1.7-2.182,1.839,1.839,0,0,1,1.756-1.437c1.277-.16,1.33-.16,1.277-1.383a2.108,2.108,0,0,1,1.064-2.235,4.018,4.018,0,0,0,.745-.585,2.463,2.463,0,0,1,2.128-.8C132.4,53.8,132.617,53.905,132.617,54.437Zm10.482,8.62a2.793,2.793,0,0,0,2.927-2.927c0-1.862.053-3.725,0-5.64,0-.8.426-.585.851-.639.426,0,.8-.053.745.585-.053,1.064,0,2.075,0,3.352a22.754,22.754,0,0,1-.16,3.725,3.425,3.425,0,0,1-1.171,2.022A14.111,14.111,0,0,0,144.27,65.5a2.608,2.608,0,0,0-.585,1.064c-.053.266-.16.372-.479.372-.372-.053-.266-.319-.266-.479v-1.49c0-.319-.106-.426-.426-.426-1.383-.053-1.383-.106-1.383,1.33v.8c0,.16-.053.319-.266.266-.16,0-.319.053-.372-.16-.319-1.383-1.437-2.182-2.394-2.98a4.518,4.518,0,0,1-1.6-3.459c-.053-1.969,0-3.991,0-5.96,0-.426.16-.532.532-.532,1.33.053,1.064-.106,1.064,1.011v5a4.565,4.565,0,0,0,.106,1.171A2.793,2.793,0,0,0,140.918,63C141.716,63.057,142.408,63.057,143.1,63.057Zm12.451,1.117c0,.426-.106.585-.532.585-.639-.053-1.33,0-1.969,0h-1.916c-.213,0-.585.213-.639-.266,0-.426-.053-.9.532-1.011.319-.053.692-.053,1.011-.106a2.579,2.579,0,0,0,2.661-2.554A2.646,2.646,0,0,0,152.3,57.9c-.639-.106-.8-.319-.8-.9a22.186,22.186,0,0,0,0-2.661c0-.372.106-.479.479-.479a3.537,3.537,0,0,1,2.448.851,3.106,3.106,0,0,1,1.6,3.405c-.106.532.106.745.639.692a2.62,2.62,0,0,1,1.543.319,1.75,1.75,0,0,1,.9,1.916,1.6,1.6,0,0,1-1.49,1.437,2.386,2.386,0,0,1-.585.053C155.923,62.632,155.551,63,155.551,64.175ZM163,58.8c.319.106.426.266.372.585a12,12,0,0,0,0,1.383,1.4,1.4,0,0,1-.8,1.65c-.639.266-.692.958-.639,1.6.053.479-.053.692-.639.692-1.383-.053-2.767,0-4.2,0-.266,0-.639.213-.639-.372,0-.426,0-.851.585-.9a8.261,8.261,0,0,0,1.117-.213,2.4,2.4,0,0,0,1.916-2.661,2.551,2.551,0,0,0-2.394-2.661c-.639-.053-.8-.266-.692-.851a2.38,2.38,0,0,0-1.064-2.394c-2.873-2.394-5.694-4.842-8.567-7.29a1.343,1.343,0,0,0-.9-.319h-8.886a1.119,1.119,0,0,0-.8.266c-3.086,2.661-6.172,5.268-9.259,7.875-.479.372-.426.8-.426,1.277v.692c.053.426-.106.639-.585.692a2.74,2.74,0,0,0-2.394,3.778,2.483,2.483,0,0,0,2.075,1.65,4.107,4.107,0,0,0,.8.106c.639.053.585.532.585.958,0,.532-.426.319-.639.319h-4.257c-.372,0-.532-.106-.479-.479a1.848,1.848,0,0,0-1.277-2.182c-.266-.106-.213-.319-.213-.532V60.077c-.053-.692-.053-1.277.8-1.6.532-.16.692-.745.692-1.33,0-1.117.053-2.235,0-3.352a1.34,1.34,0,0,1,.479-1.064c.9-.8,1.756-1.65,2.661-2.448a.812.812,0,0,0,.266-.958c-.958-3.405-1.916-6.758-2.873-10.163a7.849,7.849,0,0,1-.213-3.352,1.882,1.882,0,0,1,.851-1.437c.692-.479.8-.426,1.277.213a2.042,2.042,0,0,0,1.6.8c.16,0,.426.106.426-.266,0-.213.106-.532-.319-.532a1.16,1.16,0,0,1-1.117-1.117c-.053-.266,0-.426.319-.426,1.862,0,3.725-.16,5.481.851.479.266.372.585.426.958,0,.479-.319.266-.532.319a1.408,1.408,0,0,0-1.224,1.33,1.438,1.438,0,0,0,1.383,1.33c.16,0,.319-.053.372.213,0,.319-.213.213-.372.213h-3.565c-.319,0-.585-.053-.585-.426,0-.479-.372-.319-.585-.319-.319-.053-.319.213-.319.426a1.131,1.131,0,0,0,1.117,1.277c.745.053,1.437.053,2.182.053a1.752,1.752,0,0,1,1.011.319c2.767,1.756,5.534,3.459,8.248,5.268a3.3,3.3,0,0,0,2.128.319c.372,0,.213-.372.213-.585-.053-.479.106-.745.639-.639a1.758,1.758,0,0,0,.745,0c.692-.053,1.224-.053,1.064.9-.053.16,0,.372.213.319.692-.053,1.437.16,2.128-.319,2.714-1.756,5.427-3.459,8.141-5.161a2.037,2.037,0,0,1,1.33-.372h1.969c.8-.053,1.117-.426,1.117-1.171,0-.213.106-.532-.266-.532-.266,0-.585-.16-.639.319-.053.319-.319.426-.639.426H153.21c-.16,0-.426.106-.426-.213,0-.266.266-.213.426-.213a1.372,1.372,0,0,0,1.277-1.277,1.271,1.271,0,0,0-1.117-1.383c-.266-.053-.585.053-.585-.479a.911.911,0,0,1,.479-.851c1.7-1.011,3.618-.8,5.481-.8.319,0,.319.16.266.372A1.148,1.148,0,0,1,158,34.643c-.372.053-.426.266-.426.532,0,.426.372.266.585.266a1.689,1.689,0,0,0,1.6-1.064c.106-.319.266-.319.585-.213a2.119,2.119,0,0,1,1.437,2.128,14.764,14.764,0,0,1-.745,4.789l-2.394,8.3a.913.913,0,0,0,.266,1.011c.9.851,1.809,1.7,2.714,2.5a1.193,1.193,0,0,1,.426,1.011c-.053,1.117,0,2.182,0,3.3A1.339,1.339,0,0,0,163,58.8ZM152.411,42.145a4.929,4.929,0,0,0-1.383,2.714c-.053.213,0,.372.266.319h.8c.213,0,.319-.053.319-.319Zm0,0a4.929,4.929,0,0,0-1.383,2.714c-.053.213,0,.372.266.319h.8c.213,0,.319-.053.319-.319Zm0,0a4.929,4.929,0,0,0-1.383,2.714c-.053.213,0,.372.266.319h.8c.213,0,.319-.053.319-.319Zm0,0a4.929,4.929,0,0,0-1.383,2.714c-.053.213,0,.372.266.319h.8c.213,0,.319-.053.319-.319Zm0,0a4.929,4.929,0,0,0-1.383,2.714c-.053.213,0,.372.266.319h.8c.213,0,.319-.053.319-.319Z" transform="translate(-115.058 -14.104)"/>
      <path id="Path_1946" data-name="Path 1946" class="cls-1" d="M152.411,42.145a4.929,4.929,0,0,0-1.383,2.714c-.053.213,0,.372.266.319h.8c.213,0,.319-.053.319-.319Zm0,0a4.929,4.929,0,0,0-1.383,2.714c-.053.213,0,.372.266.319h.8c.213,0,.319-.053.319-.319Zm0,0a4.929,4.929,0,0,0-1.383,2.714c-.053.213,0,.372.266.319h.8c.213,0,.319-.053.319-.319Zm0,0a4.929,4.929,0,0,0-1.383,2.714c-.053.213,0,.372.266.319h.8c.213,0,.319-.053.319-.319Zm0,0a4.929,4.929,0,0,0-1.383,2.714c-.053.213,0,.372.266.319h.8c.213,0,.319-.053.319-.319Zm0,0a4.929,4.929,0,0,0-1.383,2.714c-.053.213,0,.372.266.319h.8c.213,0,.319-.053.319-.319Zm14.154,7.609c-.585-2.554-1.437-5-2.182-7.449a5.727,5.727,0,0,1-.213-2.5,2.685,2.685,0,0,1,1.543-2.022c-.692,2.235-.479,3.672.9,4.789V36.346a.675.675,0,0,0-.319.053,4.412,4.412,0,0,0-2.98,5.427c.692,2.5,1.437,4.949,2.128,7.4a4.759,4.759,0,0,1,.106,2.448c-.319,1.064-2.128,1.7-2.927,1.011-.9-.851-1.756-1.7-2.714-2.554a.831.831,0,0,1-.213-.958c.745-2.767,1.543-5.481,2.235-8.248a15.367,15.367,0,0,0,.745-4.416,3.241,3.241,0,0,0-2.341-3.193c-.319-.106-.585-.266-.479-.639.053-.266-.106-.426-.372-.426-2.235.053-4.523-.266-6.7.9-1.011.532-1.064.426-1.064,1.6,0,1.277,0,1.277,1.224,1.277.372,0,.692.106.692.532s-.319.532-.692.585c-1.117.053-1.117.053-1.117,1.171v.532c-.053.319.053.585.532.532-.8.532-1.543,1.011-2.288,1.543a.612.612,0,0,1-.9-.106c-.958-.958-1.916-1.862-2.927-2.767-.426-.426-.8-.8-.692-1.437.053-.426-.16-.479-.532-.479-.532.053-1.064.053-1.6.053-.16,0-.266,0-.319-.16s-.053-.319.16-.372a2.157,2.157,0,0,0,.479-.266,3.016,3.016,0,0,0,1.011-3.884,2.966,2.966,0,0,0-3.831-1.33,2.974,2.974,0,0,0-.266,5.321c.213.106.479.213.372.532s-.372.16-.585.16a9.419,9.419,0,0,1-1.224-.053c-.426-.053-.585.106-.532.532a1.05,1.05,0,0,1-.319,1.064c-1.171,1.064-2.288,2.128-3.459,3.246-.213.16-.372.266-.639.106-.745-.532-1.543-1.011-2.341-1.49.8-.106.426-.692.479-1.011.053-.426.213-.958-.053-1.277-.213-.266-.745-.053-1.117-.106a.574.574,0,0,1-.639-.585c0-.426.266-.532.639-.532h.266c.958,0,.958,0,.958-.958v-.16c0-1.383,0-1.383-1.224-1.862a7.762,7.762,0,0,0-2.341-.851c-1.33-.053-2.714,0-4.044,0-.319,0-.532.053-.426.426.053.426-.16.532-.479.639a3.319,3.319,0,0,0-2.341,2.82,8.193,8.193,0,0,0,.266,3.033c.9,3.352,1.809,6.7,2.714,10.11a.678.678,0,0,1-.213.8c-.851.8-1.756,1.543-2.5,2.394-.692.745-1.437.426-2.128.266a1.445,1.445,0,0,1-1.064-1.49,6.846,6.846,0,0,1,.372-2.714l1.916-6.385a4.492,4.492,0,0,0-2.714-5.64c-.426-.16-.585-.16-.585.372.053,1.383,0,2.767,0,4.1v1.756a4.151,4.151,0,0,0,.851-5.055,2.988,2.988,0,0,1,1.6,2.128,5.7,5.7,0,0,1-.16,2.5c-.692,2.394-1.49,4.736-2.128,7.13-.692,2.714.426,4.257,3.193,4.416.372,0,.426.16.426.479v2.448c0,.958-.16,1.171-1.064,1.33-.372.053-.426.16-.426.532v3.831c0,.372.106.532.479.532.585.053,1.064.266,1.117.958.053.585-.266,1.383.16,1.7s1.171.106,1.809.106h10.749c.213,0,.532.16.639-.266.426-2.022-.266-2.927-2.288-3.033H132.4a1.628,1.628,0,0,1-1.756-1.49,1.574,1.574,0,0,1,1.383-1.969,3.341,3.341,0,0,1,1.011-.16c.585.053.639-.266.639-.745V54.277c0-1.277,0-1.277-1.33-1.33-.053,0-.106-.053-.213-.106,1.809-1.6,3.565-3.086,5.321-4.629a.9.9,0,0,1,.532-.16h2.873c.372,0,.479.106.479.479V61.78c0,.479-.213.479-.532.426a1.794,1.794,0,0,1-1.543-1.969V53.586c0-.532-.16-.692-.639-.639a17.189,17.189,0,0,1-2.341,0c-.426,0-.585.16-.585.585v7.183a4.716,4.716,0,0,0,1.543,3.618c.479.479,1.011.9,1.49,1.33a3.15,3.15,0,0,1,1.171,1.969c.053.426.266.479.639.479,1.011,0,2.075-.053,3.086,0,.639,0,1.064,0,1.117-.8,0-.585.479-1.011.9-1.437.372-.319.745-.639,1.064-.958a4.88,4.88,0,0,0,2.022-3.672c.053-2.607,0-5.268.053-7.875,0-.319-.106-.426-.426-.426H145.76c-.426,0-.532.16-.479.532V60.29a1.834,1.834,0,0,1-1.543,1.969c-.319.053-.532,0-.479-.372V48.637c0-.426.16-.479.532-.479h2.661a1.208,1.208,0,0,1,.851.319c1.49,1.277,2.98,2.554,4.416,3.884.213.213.532.372.692.692h-1.064c-.426-.053-.479.16-.479.532v4.842c0,.372.106.479.479.479a4.482,4.482,0,0,1,1.437.213,1.582,1.582,0,0,1,1.224,1.809,1.648,1.648,0,0,1-1.6,1.65,9.633,9.633,0,0,0-1.224.16,1.462,1.462,0,0,0-1.383,1.7,4,4,0,0,1,0,.8c-.053.532.106.745.692.745,3.725-.053,7.449,0,11.174,0,1.437,0,1.437,0,1.437-1.437,0-.958.16-1.224,1.064-1.33.426-.053.479-.213.426-.585V58.854c0-.426-.106-.532-.532-.585-.8-.106-1.011-.426-1.011-1.277,0-.745.053-1.49,0-2.182-.053-.585.106-.851.8-.8a2.8,2.8,0,0,0,2.394-.958A5.107,5.107,0,0,0,166.565,49.755Zm-26.5-16.921a2.049,2.049,0,0,1,4.1,0,2.067,2.067,0,0,1-2.075,2.022A1.988,1.988,0,0,1,140.067,32.834Zm-3.831,8.194,3.033-2.873c.16-.16.372-.266.372-.479-.106-.639.319-.532.692-.532h3.778c.319,0,.532,0,.479.426-.053.319.213.479.372.692,1.171,1.117,2.341,2.182,3.565,3.3a.734.734,0,0,1,.16.213c-1.171.851-1.277.958-2.128-.16a5.019,5.019,0,0,0-4.736-1.969,4.391,4.391,0,0,0-3.778,1.6,6.708,6.708,0,0,1-1.064,1.064c-.213.213-.372.213-.639.053C135.437,41.773,135.437,41.773,136.235,41.028Zm7.556,2.022c-.639.106-.8-.16-.745-.745a5.126,5.126,0,0,0,0-.9c.053-.266-.16-.639.16-.692a1.1,1.1,0,0,1,1.064.106l2.288,2.288c-.745.479-1.437.958-2.288,1.49V43.529C144.377,43.156,144.217,42.944,143.791,43.05Zm-3.938,1.543c-.8-.532-1.543-.958-2.288-1.49.8-.745,1.49-1.437,2.182-2.182a1,1,0,0,1,1.117-.213c.372.106.16.532.213.8a2.563,2.563,0,0,1,0,.639c.106.692-.053,1.117-.851.958-.266-.053-.372.106-.372.372Zm-7.237,9.844a23.081,23.081,0,0,0,0,2.714c0,.479-.106.639-.585.692a2.764,2.764,0,0,0-2.5,3.405,2.438,2.438,0,0,0,2.235,2.075c.426.053.8.053,1.224.106.372.053.585.16.692.532.16.692.053.8-.639.8h-3.938c-.266,0-.426-.053-.479-.372-.16-1.6-.319-1.756-1.916-1.916a1.738,1.738,0,0,1-1.7-2.182,1.839,1.839,0,0,1,1.756-1.437c1.277-.16,1.33-.16,1.277-1.383a2.108,2.108,0,0,1,1.064-2.235,4.018,4.018,0,0,0,.745-.585,2.463,2.463,0,0,1,2.128-.8C132.4,53.8,132.617,53.905,132.617,54.437Zm10.482,8.62a2.793,2.793,0,0,0,2.927-2.927c0-1.862.053-3.725,0-5.64,0-.8.426-.585.851-.639.426,0,.8-.053.745.585-.053,1.064,0,2.075,0,3.352a22.754,22.754,0,0,1-.16,3.725,3.425,3.425,0,0,1-1.171,2.022A14.111,14.111,0,0,0,144.27,65.5a2.608,2.608,0,0,0-.585,1.064c-.053.266-.16.372-.479.372-.372-.053-.266-.319-.266-.479v-1.49c0-.319-.106-.426-.426-.426-1.383-.053-1.383-.106-1.383,1.33v.8c0,.16-.053.319-.266.266-.16,0-.319.053-.372-.16-.319-1.383-1.437-2.182-2.394-2.98a4.518,4.518,0,0,1-1.6-3.459c-.053-1.969,0-3.991,0-5.96,0-.426.16-.532.532-.532,1.33.053,1.064-.106,1.064,1.011v5a4.565,4.565,0,0,0,.106,1.171A2.793,2.793,0,0,0,140.918,63C141.716,63.057,142.408,63.057,143.1,63.057Zm12.451,1.117c0,.426-.106.585-.532.585-.639-.053-1.33,0-1.969,0h-1.916c-.213,0-.585.213-.639-.266,0-.426-.053-.9.532-1.011.319-.053.692-.053,1.011-.106a2.579,2.579,0,0,0,2.661-2.554A2.646,2.646,0,0,0,152.3,57.9c-.639-.106-.8-.319-.8-.9a22.186,22.186,0,0,0,0-2.661c0-.372.106-.479.479-.479a3.537,3.537,0,0,1,2.448.851,3.106,3.106,0,0,1,1.6,3.405c-.106.532.106.745.639.692a2.62,2.62,0,0,1,1.543.319,1.75,1.75,0,0,1,.9,1.916,1.6,1.6,0,0,1-1.49,1.437,2.386,2.386,0,0,1-.585.053C155.923,62.632,155.551,63,155.551,64.175ZM163,58.8c.319.106.426.266.372.585a12,12,0,0,0,0,1.383,1.4,1.4,0,0,1-.8,1.65c-.639.266-.692.958-.639,1.6.053.479-.053.692-.639.692-1.383-.053-2.767,0-4.2,0-.266,0-.639.213-.639-.372,0-.426,0-.851.585-.9a8.261,8.261,0,0,0,1.117-.213,2.4,2.4,0,0,0,1.916-2.661,2.551,2.551,0,0,0-2.394-2.661c-.639-.053-.8-.266-.692-.851a2.38,2.38,0,0,0-1.064-2.394c-2.873-2.394-5.694-4.842-8.567-7.29a1.343,1.343,0,0,0-.9-.319h-8.886a1.119,1.119,0,0,0-.8.266c-3.086,2.661-6.172,5.268-9.259,7.875-.479.372-.426.8-.426,1.277v.692c.053.426-.106.639-.585.692a2.74,2.74,0,0,0-2.394,3.778,2.483,2.483,0,0,0,2.075,1.65,4.107,4.107,0,0,0,.8.106c.639.053.585.532.585.958,0,.532-.426.319-.639.319h-4.257c-.372,0-.532-.106-.479-.479a1.848,1.848,0,0,0-1.277-2.182c-.266-.106-.213-.319-.213-.532V60.077c-.053-.692-.053-1.277.8-1.6.532-.16.692-.745.692-1.33,0-1.117.053-2.235,0-3.352a1.34,1.34,0,0,1,.479-1.064c.9-.8,1.756-1.65,2.661-2.448a.812.812,0,0,0,.266-.958c-.958-3.405-1.916-6.758-2.873-10.163a7.849,7.849,0,0,1-.213-3.352,1.882,1.882,0,0,1,.851-1.437c.692-.479.8-.426,1.277.213a2.042,2.042,0,0,0,1.6.8c.16,0,.426.106.426-.266,0-.213.106-.532-.319-.532a1.16,1.16,0,0,1-1.117-1.117c-.053-.266,0-.426.319-.426,1.862,0,3.725-.16,5.481.851.479.266.372.585.426.958,0,.479-.319.266-.532.319a1.408,1.408,0,0,0-1.224,1.33,1.438,1.438,0,0,0,1.383,1.33c.16,0,.319-.053.372.213,0,.319-.213.213-.372.213h-3.565c-.319,0-.585-.053-.585-.426,0-.479-.372-.319-.585-.319-.319-.053-.319.213-.319.426a1.131,1.131,0,0,0,1.117,1.277c.745.053,1.437.053,2.182.053a1.752,1.752,0,0,1,1.011.319c2.767,1.756,5.534,3.459,8.248,5.268a3.3,3.3,0,0,0,2.128.319c.372,0,.213-.372.213-.585-.053-.479.106-.745.639-.639a1.758,1.758,0,0,0,.745,0c.692-.053,1.224-.053,1.064.9-.053.16,0,.372.213.319.692-.053,1.437.16,2.128-.319,2.714-1.756,5.427-3.459,8.141-5.161a2.037,2.037,0,0,1,1.33-.372h1.969c.8-.053,1.117-.426,1.117-1.171,0-.213.106-.532-.266-.532-.266,0-.585-.16-.639.319-.053.319-.319.426-.639.426H153.21c-.16,0-.426.106-.426-.213,0-.266.266-.213.426-.213a1.372,1.372,0,0,0,1.277-1.277,1.271,1.271,0,0,0-1.117-1.383c-.266-.053-.585.053-.585-.479a.911.911,0,0,1,.479-.851c1.7-1.011,3.618-.8,5.481-.8.319,0,.319.16.266.372A1.148,1.148,0,0,1,158,34.643c-.372.053-.426.266-.426.532,0,.426.372.266.585.266a1.689,1.689,0,0,0,1.6-1.064c.106-.319.266-.319.585-.213a2.119,2.119,0,0,1,1.437,2.128,14.764,14.764,0,0,1-.745,4.789l-2.394,8.3a.913.913,0,0,0,.266,1.011c.9.851,1.809,1.7,2.714,2.5a1.193,1.193,0,0,1,.426,1.011c-.053,1.117,0,2.182,0,3.3A1.339,1.339,0,0,0,163,58.8ZM152.411,42.145a4.929,4.929,0,0,0-1.383,2.714c-.053.213,0,.372.266.319h.8c.213,0,.319-.053.319-.319Zm0,0a4.929,4.929,0,0,0-1.383,2.714c-.053.213,0,.372.266.319h.8c.213,0,.319-.053.319-.319Zm0,0a4.929,4.929,0,0,0-1.383,2.714c-.053.213,0,.372.266.319h.8c.213,0,.319-.053.319-.319Zm0,0a4.929,4.929,0,0,0-1.383,2.714c-.053.213,0,.372.266.319h.8c.213,0,.319-.053.319-.319Zm0,0a4.929,4.929,0,0,0-1.383,2.714c-.053.213,0,.372.266.319h.8c.213,0,.319-.053.319-.319Z" transform="translate(-115.058 -14.104)"/>
      <path id="Path_1947" data-name="Path 1947" class="cls-3" d="M176.11,22.141c-.266-.639-.958-.16-1.437-.266-.426-.106-.426.266-.372.532.106.479-.426,1.33.692,1.33H171.8c.745,0,.745-.479.745-1.064a12.158,12.158,0,0,1,0-1.969c.053-.532-.106-.851-.692-.9h3.086a1.117,1.117,0,0,0-.639,1.49c.266.585.958.16,1.383.266.266.053.479,0,.426-.372-.106-.479.426-1.277-.639-1.383H178.5c-.692.053-.692.532-.639,1.011,0,.639.053,1.33,0,1.969,0,.532.053.9.692.958h-3.193A1.119,1.119,0,0,0,176.11,22.141Z" transform="translate(-140.406 -9.371)"/>
      <path id="Path_1948" data-name="Path 1948" class="cls-3" d="M133.9,21.808a.48.48,0,0,0-.266-.053,3.442,3.442,0,0,1-.692-.213h-.053c.106,0,.266.053.319-.053a.675.675,0,0,0,.319-.053c.479-.16,1.064-.213,1.011-.9-.053-.639-.585-.8-1.064-.851-1.49-.053-2.927,0-4.416,0,.8.053.692.585.692,1.117,0,.585-.053,1.171,0,1.756.053.532,0,1.011-.745,1.064a24.5,24.5,0,0,0,4.842-.053c.479-.053.958-.266,1.011-.851S134.374,22.02,133.9,21.808Zm-1.117-.16h0C132.831,21.7,132.672,21.648,132.778,21.648Zm-1.33-.9c.053-.372-.213-.851.479-.851.585,0,1.011.319.958.8-.053.585-.426.8-.958.8C131.128,21.595,131.554,21.009,131.448,20.743Zm.639,2.82c-.8,0-.585-.585-.639-1.011.053-.372-.16-.851.532-.8s1.117.372,1.117.9A.9.9,0,0,1,132.086,23.564Z" transform="translate(-120.38 -9.303)"/>
      <path id="Path_1949" data-name="Path 1949" class="cls-3" d="M162.94,20.226a1.6,1.6,0,0,0-1.171-.426h-4.363c-.053.053-.053.106-.106.213.745-.16.8.266.8.745v1.969c0,.532.053,1.011-.692,1.117h3.246v-.106c-.053,0-.106-.053-.213-.053-.9.053-.585-.585-.639-1.011-.053-.585.319-.426.639-.426a5.893,5.893,0,0,0,1.916-.213A1.1,1.1,0,0,0,162.94,20.226Zm-2.661,1.65c-.9.053-.319-.639-.532-.958.106-.372-.266-.958.532-.958.692,0,1.117.319,1.117.9C161.4,21.556,161.025,21.875,160.28,21.875Z" transform="translate(-133.621 -9.371)"/>
      <path id="Path_1950" data-name="Path 1950" class="cls-4" d="M146.173,23.65h2.98c-.372-.16-.479-.479-.639-.8-.479-.958-1.011-1.862-1.49-2.82a.751.751,0,0,0-.745-.532c-.479,0-.585.266-.745.585-.319.639-.639,1.33-1.011,1.969-.319.532-.479,1.224-1.224,1.6h2.022q-.08-.16-.16-.16c-.319,0-.639-.106-.585-.479a.561.561,0,0,1,.639-.532,1.758,1.758,0,0,0,.745,0c.532-.053.585.372.692.692C146.865,23.6,146.333,23.384,146.173,23.65ZM145,22.107a3.81,3.81,0,0,1,.639-1.33c.213.532.372.9.585,1.33Z" transform="translate(-127.071 -9.23)"/>
      <path id="Path_1951" data-name="Path 1951" class="cls-4" d="M190.327,23.7h2.927c-.372-.16-.479-.532-.639-.8-.532-.958-1.011-1.916-1.49-2.873a.685.685,0,0,0-.692-.426.645.645,0,0,0-.692.426c-.426.9-.9,1.809-1.383,2.714a1.9,1.9,0,0,1-.958,1.011,8.2,8.2,0,0,0,2.288-.053c-.213-.106-.266-.106-.319-.16-.319,0-.639-.053-.585-.479a.555.555,0,0,1,.692-.532,1.519,1.519,0,0,0,.692,0c.532-.053.639.372.745.692C190.965,23.7,190.433,23.431,190.327,23.7ZM189.1,22.154c.213-.479.426-.9.639-1.33.213.479.372.9.585,1.33Z" transform="translate(-147.705 -9.277)"/>
      <path id="Path_1952" data-name="Path 1952" class="cls-5" d="M147.92,41.7a1.83,1.83,0,0,1-2.022.8c-.319-.106-.213-.319-.213-.479-.053-.266.106-.319.372-.319Z" transform="translate(-128.179 -19.618)"/>
      <path id="Path_1953" data-name="Path 1953" class="cls-6" d="M179.628,42.164c0,.266-.053.426-.372.426-.692,0-1.437.106-1.756-.8h1.756C179.575,41.738,179.628,41.9,179.628,42.164Z" transform="translate(-143.073 -19.655)"/>
      <path id="Path_1954" data-name="Path 1954" class="cls-7" d="M136.9,23.482a1.818,1.818,0,0,1-.9-.16.517.517,0,0,1,.479-.053C136.639,23.269,136.745,23.376,136.9,23.482Z" transform="translate(-123.655 -10.978)"/>
      <path id="Path_1955" data-name="Path 1955" class="cls-2" d="M181.767,55.714c0,.266-.106.319-.319.319h-.8c-.266,0-.319-.106-.266-.319A4.765,4.765,0,0,1,181.767,53Z" transform="translate(-144.413 -24.905)"/>
      <path id="Path_1956" data-name="Path 1956" class="cls-8" d="M140.3,53.3a3.813,3.813,0,0,1,1.437,2.607c.053.16,0,.319-.213.266h-.16c-1.064.053-1.064.053-1.064-1.011Z" transform="translate(-125.667 -25.045)"/>
      <path id="Path_1957" data-name="Path 1957" class="cls-8" d="M189.352,53v2.82c0,.426-.426.213-.639.266-.851.053-.9,0-.639-.8A3.835,3.835,0,0,1,189.352,53Z" transform="translate(-147.955 -24.905)"/>
      <path id="Path_1958" data-name="Path 1958" class="cls-9" d="M132.8,52.9a4.88,4.88,0,0,1,1.49,2.873c.053.213-.106.213-.266.213-1.117.16-1.224.053-1.224-1.064Z" transform="translate(-122.158 -24.858)"/>
      <path id="Path_1959" data-name="Path 1959" class="cls-3" d="M144.1,52.9a5.354,5.354,0,0,1,1.543,3.086h-1.33c-.213,0-.213-.16-.213-.266Z" transform="translate(-127.445 -24.858)"/>
      <path id="Path_1960" data-name="Path 1960" class="cls-3" d="M185.49,52.9v2.767c0,.266-.106.319-.372.319H184A5.6,5.6,0,0,1,185.49,52.9Z" transform="translate(-146.114 -24.858)"/>
      <path id="Path_1961" data-name="Path 1961" class="cls-3" d="M138.09,55.98c-1.49.16-1.49.16-1.49-1.171V53A5,5,0,0,1,138.09,55.98Z" transform="translate(-123.936 -24.905)"/>
      <path id="Path_1962" data-name="Path 1962" class="cls-3" d="M193.145,53v2.554c0,.426-.106.532-.532.532-1.011,0-1.011,0-.745-.958A3.618,3.618,0,0,1,193.145,53Z" transform="translate(-149.726 -24.905)"/>
      <path id="Path_1963" data-name="Path 1963" class="cls-3" d="M181.767,55.714c0,.266-.106.319-.319.319h-.8c-.266,0-.319-.106-.266-.319A4.765,4.765,0,0,1,181.767,53Z" transform="translate(-144.413 -24.905)"/>
    </g>
    <g id="Group_2414" data-name="Group 2414" transform="translate(0.089 -0.011)">
      <g id="Group_2408" data-name="Group 2408">
        <path id="Path_1964" data-name="Path 1964" class="cls-1" d="M34.575,5c.053-1.809.053-3.3.053-5,3.352,0,6.6,0,9.9.053.213,0,.585.639.585.958.053,2.235-.053,4.523-.053,6.758,0,1.171.16,2.394.266,3.672,1.224,0,2.394,0,3.778.053a6.738,6.738,0,0,1,.319,1.49c.053,6.172,0,12.292.053,18.464,0,3.884.053,7.822.106,11.706.053,2.448.053,4.842.16,7.29a1.289,1.289,0,0,1-.8,1.383c-1.437.692-2.82,1.437-4.257,2.075L33.671,58.846c-2.82,1.277-5.587,2.607-8.354,3.938a2.4,2.4,0,0,1-2.394-.106c-3.033-1.543-6.119-3.086-9.205-4.576C9.673,56.185,5.576,54.27,1.478,52.407a1.281,1.281,0,0,1-.9-1.437c0-4.363-.053-8.727-.053-13.09C.467,34.422.467,31.017.414,27.558.361,23.993.361,20.428.308,16.916c0-1.33-.106-2.607-.213-3.938-.053-.692.266-.9.958-.958,2.873-.106,2.82-.106,2.714-3.086C3.66,6.54,3.66,4.145,3.607,1.751c0-.8.053-1.33,1.117-1.277C7.278.527,9.833.421,12.387.367c.639,0,.745.319.745.9-.053.958,0,1.916-.053,2.927-.106.585.16.8.8.8,1.064,0,2.182,0,3.246.053.745.053.958-.319.9-.958,0-.958.053-1.916,0-2.927C17.974.421,18.24.155,19.038.155c1.809.053,3.618.053,5.481.053a19.013,19.013,0,0,0,2.5-.213c.692-.053.958.266.958.958-.053,1.011,0,2.022-.053,3.033,0,.692.266.958.958.958C30.8,4.944,32.607,5,34.575,5ZM44.047,51.29c.9-.372,1.756-.8,2.661-1.117a1.3,1.3,0,0,0,.9-1.437c-.053-2.607-.16-5.268-.16-7.875-.053-5.853,0-11.706-.053-17.506,0-2.873-.106-5.8-.16-8.673a1.294,1.294,0,0,0-.16-.585c-1.064,0-2.022-.053-2.98,0s-1.277-.266-1.277-1.224c0-3.193-.053-6.332-.106-9.525a1.252,1.252,0,0,0-.585-.9c-1.7-.106-3.405-.053-5.108-.106,0,1.437-.053,2.714-.053,4.044,0,.692-.213,1.064-1.011,1.064-2.927,0-5.853.053-8.833.16-1.224.053-1.437-.532-1.437-1.543a17.412,17.412,0,0,0-.213-2.873,1.241,1.241,0,0,0-.851-.692c-1.117-.053-2.235.16-3.352.16-.745,0-.958.319-.9.958,0,.958-.053,1.916,0,2.927,0,.851-.266,1.277-1.224,1.224-2.341-.053-4.736-.106-7.077-.053-1.064,0-1.224-.479-1.224-1.33A17.2,17.2,0,0,0,10.9,4.039c-.053-.851-.426-1.33-1.383-1.277a20.453,20.453,0,0,1-2.554,0c-.9-.106-1.224.266-1.224,1.171.106,2.607.16,5.268.16,7.875,0,2.661,0,2.714-2.767,2.82-.745.053-1.064.319-1.011,1.064.053,1.011.16,2.075.213,3.086.106,3.565.16,7.237.16,10.908,0,6.226,0,12.451.053,18.677v.479a2.172,2.172,0,0,0,1.49,2.075c1.277.479,2.5,1.117,3.778,1.7,5.161,2.448,10.323,4.9,15.431,7.4a2.166,2.166,0,0,0,2.128,0c4.47-2.128,8.939-4.2,13.409-6.332l5.268-2.394Z" transform="translate(-0.089 0.011)"/>
      </g>
      <g id="Group_2409" data-name="Group 2409" transform="translate(6.976 16.126)">
        <path id="Path_1965" data-name="Path 1965" class="cls-1" d="M27.248,52.806a4.749,4.749,0,0,1-.372,1.383c-.213.372-.532.851-.851.9-.9.106-1.064.639-1.064,1.383,0,.8.372,1.117,1.224,1.224a2.748,2.748,0,0,1,2.288,2.98.967.967,0,0,1-.585.532,6.028,6.028,0,0,1-4.1-.106,2.384,2.384,0,0,0-1.6-.106c-1.224.585-2.394.106-3.618.053-2.182-.106-2.341-1.969-3.033-3.246a3.19,3.19,0,0,1,.639-3.352c1.33-1.862,1.011-3.352-.9-4.629-1.437-.9-1.7-2.554-.958-4.629.639-1.756,1.011-3.618,1.49-5.427a3.274,3.274,0,0,0-.106-1.011.906.906,0,0,1-.372-.053,12.423,12.423,0,0,1-.372,1.33,8.038,8.038,0,0,1-.479.958c-.319-.213-.8-.426-.958-.745a4.984,4.984,0,0,1-.319-1.543c0-.8.053-1.543.106-2.341.053-1.064.585-1.33,1.65-1.117,1.7.372,2.288,2.394,2.341,4.1.106,2.128-.851,3.991-1.6,5.853a5.171,5.171,0,0,0-.479,3.352c.213.851.532.958,1.277.745,1.809-.585,3.193-1.916,2.98-3.405a38.564,38.564,0,0,0-1.65-7.024,8.4,8.4,0,0,1-.266-5.108c.639-2.235,4.31-3.778,5.906-3.405,1.383.319,2.022,1.49,2.661,2.607.372.639.692,1.33,1.117,2.075a10.17,10.17,0,0,0-.745,1.117,1.5,1.5,0,0,0,.8,2.128c.9.319,1.383-.319,1.756-.958a6.557,6.557,0,0,1,5.534-3.565c.532-.053,1.224.585,1.65,1.064a3.044,3.044,0,0,0,2.075,1.064,16.877,16.877,0,0,1,4.576,1.383A11.4,11.4,0,0,1,49.277,48.6c-.372,5.481-2.554,9.205-7.662,11.227a9.707,9.707,0,0,1-10.536-2.022,11.017,11.017,0,0,1-3.193-4.31,2.157,2.157,0,0,0-.266-.479C27.514,52.912,27.46,52.912,27.248,52.806ZM43.636,48.39c.213-2.98-1.383-5.427-3.725-5.747.053.106.053.213.16.319a1.657,1.657,0,0,0,.479.372c1.756.8,2.341,2.341,2.714,4.044.106.372.213.745.319,1.171-.213.692-.319,1.437-.585,2.128-1.171,2.98-5.055,4.9-8.248,1.916-.532-.532-1.117-1.011-1.7-1.543a4.6,4.6,0,0,0,.372.9,6.171,6.171,0,0,0,5.906,2.607,6.41,6.41,0,0,0,4.629-5.108C43.849,49.028,43.69,48.709,43.636,48.39Zm3.3,2.714a11.744,11.744,0,0,1-6.545,6.971c.213.106.372.16.426.106a10.487,10.487,0,0,0,6.385-6.6c.053-.16-.106-.372-.16-.585,1.543-4.15-.266-9.046-4.2-11.706-2.554-1.756-7.13-1.916-8.673-.372.585-.16.958-.213,1.277-.319a8.865,8.865,0,0,1,9.205,2.873c2.288,2.5,2.661,5.64,2.128,8.886A3.728,3.728,0,0,1,46.935,51.1ZM26.982,45.676c.8-.16,1.383-.266,2.022-.426.585-.16,1.117-.426,1.7-.585a11.524,11.524,0,0,1,1.33-.213,6.489,6.489,0,0,1,2.022-.053c1.117.213,2.235.692,3.352.9a1.791,1.791,0,0,0,1.383-.639,1.775,1.775,0,0,0-.319-1.383,2.2,2.2,0,0,0-1.33-.585c-1.011-.053-2.075.106-3.139.106-1.437,0-2.82.106-3.831-1.224a4.172,4.172,0,0,0-1.383-1.171c-1.117-.585-2.341-1.117-3.512-1.6a3.532,3.532,0,0,0-1.064-.319c-.692-.106-1.383-.106-2.022-.213-.958-.16-1.171-.9-1.277-1.7a.86.86,0,0,1,.319-.8c.16-.106.585,0,.851.106a9.063,9.063,0,0,1,1.171.8c.426-1.171.851-2.182,1.224-3.246a.7.7,0,0,0-.16-.585c-.9-.372-1.7-1.064-2.927-.532.213.266.479.479.532.692.053.426.106,1.064-.16,1.224a1.9,1.9,0,0,1-1.33,0c-.213-.053-.319-.479-.532-.532-.213-.106-.8,0-.8.106a17.965,17.965,0,0,0-.532,3.725,19.808,19.808,0,0,0,1.064,3.3,21.462,21.462,0,0,0,.585,2.661c1.064,2.5.958,3.565-1.064,5.427a2.118,2.118,0,0,0-.745,2.182,5.786,5.786,0,0,1-1.224,4.736,2.943,2.943,0,0,0,0,1.916c.106.426.532.745.745,1.117a2,2,0,0,0,2.873.585c-.266-.319-.532-.585-.8-.851-1.33-1.756-1.064-3.033.8-4.2a1.728,1.728,0,0,0,.8-1.383A2.422,2.422,0,0,1,22.671,51a15.3,15.3,0,0,1,1.809-1.437C25.864,48.443,27.141,47.325,26.982,45.676Zm4.949-.532a2.253,2.253,0,0,0-.372-.266,10.23,10.23,0,0,0-.692.9c-1.171,2.554.319,7.875,3.672,9.631,2.341,1.224,4.629,1.49,6.971.106A7.718,7.718,0,0,0,45.5,48.07a7.781,7.781,0,0,0-8.514-7.928,4.678,4.678,0,0,0-3.938,2.341,5.406,5.406,0,0,0,1.49-.372c3.086-2.288,8.354-.479,9.418,3.246a14.481,14.481,0,0,1,.585,4.523c-.16,2.5-2.767,5.055-5.534,5.587-2.341.426-5.321-1.277-6.385-3.193S30.759,48.23,31.77,46A5.877,5.877,0,0,0,31.93,45.144ZM26.609,59.67c-.585-.372-1.117-.745-1.65-1.064-1.33-.851-1.383-3.618-.16-4.629a2.637,2.637,0,0,0,1.011-1.543c.053-.479-.426-1.064-.639-1.6-.372.266-.8.426-1.171.745a1.553,1.553,0,0,0-.585.851c-.16,1.65-1.437,2.448-2.448,3.405-.692.639-.639,1.117.106,1.65a7.971,7.971,0,0,1,1.543,1.437C23.416,59.883,25.6,60.415,26.609,59.67Zm11.44-8.62a2.876,2.876,0,0,0,2.767-2.873,2.323,2.323,0,0,0-2.341-2.554c-2.288-.053-2.873,1.011-3.033,2.82A2.513,2.513,0,0,0,38.049,51.05Zm-2.767-6.013c-1.543.639-2.182,2.98-1.543,5.055a4.716,4.716,0,0,0,5.268,2.98c2.075-.479,3.938-2.98,3.672-4.949-.266-2.182-1.49-3.778-2.767-3.725,2.448,3.086,2.714,4.9.958,6.864a3.614,3.614,0,0,1-4.736.692C33.792,50.412,33.633,49.028,35.282,45.037Zm-5.853-4.949c.213-.053.372-.053.426-.16,1.437-1.7,2.98-3.246,5.374-3.459.16,0,.426-.426.372-.585a1.266,1.266,0,0,0-.479-.692,2.858,2.858,0,0,0-3.193.692,16.992,16.992,0,0,0-1.65,1.756C29.748,38.333,28.844,38.971,29.429,40.089ZM28.844,47.7c-.9,3.405,1.171,7.609,4.576,9.684,2.022,1.224,5.587,1.916,6.864.745a9.465,9.465,0,0,1-8.248-2.448C29.536,53.551,29.11,50.678,28.844,47.7Zm4.363-2.661c-1.171,1.277-1.49,4.257-.585,5.321C32.835,48.656,33.048,46.793,33.207,45.037Zm-1.969-4.044c.106.106.16.213.266.319.851-.692,1.756-1.437,2.607-2.128a1.411,1.411,0,0,1-.266-.319C32.994,39.557,32.143,40.3,31.238,40.993Z" transform="translate(-13.2 -30.296)"/>
      </g>
      <g id="Group_2410" data-name="Group 2410" transform="translate(14 25.919)">
        <path id="Path_1966" data-name="Path 1966" class="cls-1" d="M27.517,50.03c.266-.639.372-.958.532-1.33.372.266.692.479,1.064.745a9.264,9.264,0,0,0,.639-.745c.426.426.8.8,1.33,1.277.106-.585.213-.9.266-1.277,1.65,1.171,1.862,1.543,1.277,2.873-1.916,0-3.884-.053-5.906-.053L26.4,48.966a1.411,1.411,0,0,1,.319-.266A6.642,6.642,0,0,1,27.517,50.03Z" transform="translate(-26.4 -48.7)"/>
      </g>
      <g id="Group_2411" data-name="Group 2411" transform="translate(28.314 29.801)">
        <path id="Path_1967" data-name="Path 1967" class="cls-1" d="M55.109,56a1.467,1.467,0,0,1,1.543,1.6A1.706,1.706,0,0,1,54.9,59.35a1.538,1.538,0,0,1-1.6-1.7A1.637,1.637,0,0,1,55.109,56Zm1.064,1.49c-.532-.372-.958-.8-1.117-.692-.372.16-.639.639-.958.958.319.266.639.745.9.692C55.322,58.392,55.641,57.966,56.173,57.487Z" transform="translate(-53.3 -55.995)"/>
      </g>
      <g id="Group_2412" data-name="Group 2412" transform="translate(10.967 11.286)">
        <path id="Path_1968" data-name="Path 1968" class="cls-1" d="M20.7,21.5h2.873v.479H21.551v2.5H20.7Z" transform="translate(-20.7 -21.34)"/>
        <path id="Path_1969" data-name="Path 1969" class="cls-1" d="M26.9,24.48V21.5h1.383a4.363,4.363,0,0,1,1.011.053,1.5,1.5,0,0,1,.585.266.762.762,0,0,1,.266.585.858.858,0,0,1-.16.479,2.314,2.314,0,0,1-.372.319c-.16.053-.266.106-.426.16a4.059,4.059,0,0,1-.9.053h-.532v1.117H26.9Zm.851-2.5v.851h.479a2.21,2.21,0,0,0,.692-.053,1.163,1.163,0,0,0,.266-.16.4.4,0,0,0,.106-.213.293.293,0,0,0-.16-.266.756.756,0,0,0-.319-.106H27.751Z" transform="translate(-23.601 -21.34)"/>
        <path id="Path_1970" data-name="Path 1970" class="cls-1" d="M36.657,24.48h-.9l-.372-.692h-1.7l-.372.692h-.9l1.65-2.98h.9Zm-1.543-1.224-.585-1.117-.585,1.117Z" transform="translate(-26.174 -21.34)"/>
        <path id="Path_1971" data-name="Path 1971" class="cls-1" d="M41.645,21.5h2.927V24h.372v1.171h-.692v-.639H41.592v.639H40.9V24h.372a2.279,2.279,0,0,0,.319-.9,7.641,7.641,0,0,0,.106-1.277V21.5Zm.851.479a3.793,3.793,0,0,1-.372,1.969h1.6V21.979Z" transform="translate(-30.151 -21.34)"/>
        <path id="Path_1972" data-name="Path 1972" class="cls-1" d="M52.12,23.222l.8.16a.942.942,0,0,1-.585.745,2.468,2.468,0,0,1-1.117.213,2.255,2.255,0,0,1-1.383-.426A1.273,1.273,0,0,1,49.3,22.8a1.37,1.37,0,0,1,.532-1.171,2.422,2.422,0,0,1,1.437-.426,2.27,2.27,0,0,1,1.277.319,1.063,1.063,0,0,1,.426.532l-.851.16a.715.715,0,0,0-.319-.372,1.073,1.073,0,0,0-.585-.16,1.04,1.04,0,0,0-.745.213.864.864,0,0,0-.266.745,1.1,1.1,0,0,0,.266.8,1.153,1.153,0,0,0,.745.266,1.073,1.073,0,0,0,.585-.16C51.961,23.594,52.067,23.435,52.12,23.222Z" transform="translate(-34.082 -21.2)"/>
        <path id="Path_1973" data-name="Path 1973" class="cls-1" d="M57.6,21.5h.851v1.277a.509.509,0,0,0,.372-.106,3.393,3.393,0,0,0,.319-.479,1.161,1.161,0,0,1,.532-.585,3.015,3.015,0,0,1,.851-.106h.106v.426h-.106c-.16,0-.319,0-.372.053-.106.053-.16.053-.213.16-.053.053-.106.213-.213.372a1.163,1.163,0,0,1-.16.266.818.818,0,0,1-.319.213,1,1,0,0,1,.479.213,4.35,4.35,0,0,1,.426.479l.585.8H59.728l-.479-.745a.052.052,0,0,0-.053-.053.659.659,0,0,1-.106-.16,1.2,1.2,0,0,0-.266-.266c-.053-.053-.16-.053-.319-.053v1.33h-.851V21.5Z" transform="translate(-37.965 -21.34)"/>
        <path id="Path_1974" data-name="Path 1974" class="cls-1" d="M64.3,21.5h.8v1.969L66.8,21.5h.851v2.98h-.8V22.511l-1.7,1.969H64.3Z" transform="translate(-41.1 -21.34)"/>
      </g>
      <g id="Group_2413" data-name="Group 2413" transform="translate(6.551 49.172)">
        <path id="Path_1975" data-name="Path 1975" class="cls-1" d="M13.624,95.68v-2.5H12.4V92.7h3.352v.479H14.528v2.5Z" transform="translate(-12.4 -92.54)"/>
        <path id="Path_1976" data-name="Path 1976" class="cls-1" d="M19.7,95.68V92.7h1.383a4.363,4.363,0,0,1,1.011.053,1.5,1.5,0,0,1,.585.266.762.762,0,0,1,.266.585.858.858,0,0,1-.16.479,2.314,2.314,0,0,1-.372.319c-.16.053-.266.106-.426.16a4.059,4.059,0,0,1-.9.053h-.532v1.117H19.7Zm.851-2.5v.851h.479a2.21,2.21,0,0,0,.692-.053,1.163,1.163,0,0,0,.266-.16.4.4,0,0,0,.106-.213.293.293,0,0,0-.16-.266.756.756,0,0,0-.319-.106H20.551Z" transform="translate(-15.816 -92.54)"/>
        <path id="Path_1977" data-name="Path 1977" class="cls-1" d="M29.557,95.68h-.9l-.426-.692h-1.7l-.319.692h-.9l1.65-2.98h.9Zm-1.6-1.171-.585-1.117-.585,1.117Z" transform="translate(-18.436 -92.54)"/>
        <path id="Path_1978" data-name="Path 1978" class="cls-1" d="M34.1,95.68V92.7h.851v1.171H36.6V92.7h.851v2.98H36.6V94.35h-1.65v1.33Z" transform="translate(-22.553 -92.54)"/>
        <path id="Path_1979" data-name="Path 1979" class="cls-1" d="M44.573,94.422l.8.16a1.258,1.258,0,0,1-.639.745,2.468,2.468,0,0,1-1.117.213,2.255,2.255,0,0,1-1.383-.426A1.273,1.273,0,0,1,41.7,94a1.37,1.37,0,0,1,.532-1.171,2.422,2.422,0,0,1,1.437-.426,2.27,2.27,0,0,1,1.277.319,1.062,1.062,0,0,1,.426.532l-.851.16a.715.715,0,0,0-.319-.372,1.073,1.073,0,0,0-.585-.16,1.04,1.04,0,0,0-.745.213.864.864,0,0,0-.266.745,1.1,1.1,0,0,0,.266.8,1.153,1.153,0,0,0,.745.266,1.073,1.073,0,0,0,.585-.16C44.414,94.794,44.52,94.635,44.573,94.422Z" transform="translate(-26.109 -92.4)"/>
        <path id="Path_1980" data-name="Path 1980" class="cls-1" d="M50.1,92.7h3.352v2.98H52.6v-2.5h-1.65v2.5H50.1Z" transform="translate(-30.04 -92.54)"/>
        <path id="Path_1981" data-name="Path 1981" class="cls-1" d="M57.7,94.143a1.04,1.04,0,0,1,.213-.745,2.665,2.665,0,0,1,.372-.426,2.485,2.485,0,0,1,.532-.266,4.686,4.686,0,0,1,.9-.106,2.477,2.477,0,0,1,1.49.426,1.318,1.318,0,0,1,.585,1.117,1.273,1.273,0,0,1-.532,1.117,2.82,2.82,0,0,1-2.98,0A1.2,1.2,0,0,1,57.7,94.143Zm.851,0a.893.893,0,0,0,.319.745,1.354,1.354,0,0,0,.851.266,1.472,1.472,0,0,0,.851-.266.934.934,0,0,0,.319-.8.893.893,0,0,0-.319-.745,1.5,1.5,0,0,0-1.7,0A1,1,0,0,0,58.551,94.143Z" transform="translate(-33.596 -92.494)"/>
        <path id="Path_1982" data-name="Path 1982" class="cls-1" d="M66.6,95.68V92.7h1.383a4.363,4.363,0,0,1,1.011.053,1.5,1.5,0,0,1,.585.266.762.762,0,0,1,.266.585.858.858,0,0,1-.16.479,2.314,2.314,0,0,1-.372.319c-.16.053-.266.106-.426.16a4.059,4.059,0,0,1-.9.053h-.532v1.117H66.6Zm.851-2.5v.851h.479a2.21,2.21,0,0,0,.692-.053,1.163,1.163,0,0,0,.266-.16.4.4,0,0,0,.106-.213.293.293,0,0,0-.16-.266.756.756,0,0,0-.319-.106H67.451Z" transform="translate(-37.76 -92.54)"/>
        <path id="Path_1983" data-name="Path 1983" class="cls-1" d="M74.524,95.68v-2.5H73.3V92.7h3.352v.479H75.428v2.5Z" transform="translate(-40.895 -92.54)"/>
      </g>
    </g>
  </g>
</svg>
