<svg xmlns="http://www.w3.org/2000/svg" viewBox="-1809.601 4504.138 98.73 28.603">
  <defs>
    <style>
      .cls-1 {
        fill: #010101;
      }

      .cls-2 {
        fill: #fff;
      }
    </style>
  </defs>
  <g id="Group_1042" data-name="Group 1042" transform="translate(-1809.601 4504.138)">
    <g id="Group_1014" data-name="Group 1014">
      <path id="Path_929" data-name="Path 929" class="cls-1" d="M345.33,26.376a2.836,2.836,0,0,1-2.851,2.851l-92.936.276a2.836,2.836,0,0,1-2.851-2.851L246.6,4.027a2.865,2.865,0,0,1,2.851-2.851L342.387.9a2.865,2.865,0,0,1,2.851,2.851l.092,22.625Z" transform="translate(-246.6 -0.9)"/>
    </g>
    <g id="Group_1018" data-name="Group 1018" transform="translate(8.873 4.185)">
      <g id="Group_1017" data-name="Group 1017">
        <g id="Group_1015" data-name="Group 1015" transform="translate(0 4.586)">
          <path id="Path_930" data-name="Path 930" class="cls-2" d="M278.728,25.411a4.173,4.173,0,0,1,2.023-3.587,4.324,4.324,0,0,0-3.449-1.839c-1.472-.138-2.851.874-3.633.874-.736,0-1.885-.874-3.127-.828a4.639,4.639,0,0,0-3.863,2.391c-1.655,2.9-.414,7.174,1.2,9.519.828,1.15,1.747,2.437,2.989,2.391,1.2-.046,1.655-.782,3.081-.782s1.885.782,3.127.736c1.288-.046,2.115-1.15,2.9-2.345a9.262,9.262,0,0,0,1.288-2.667A4.331,4.331,0,0,1,278.728,25.411Z" transform="translate(-265.896 -19.972)"/>
        </g>
        <g id="Group_1016" data-name="Group 1016" transform="translate(7.658)">
          <path id="Path_931" data-name="Path 931" class="cls-2" d="M285.332,13.035A4.236,4.236,0,0,0,286.3,10a4.127,4.127,0,0,0-2.759,1.472,4.011,4.011,0,0,0-.966,2.943A3.675,3.675,0,0,0,285.332,13.035Z" transform="translate(-282.55 -10)"/>
        </g>
      </g>
    </g>
    <g id="Group_1027" data-name="Group 1027" transform="translate(30.81 12.876)">
      <g id="Group_1019" data-name="Group 1019" transform="translate(0 0.092)">
        <path id="Path_932" data-name="Path 932" class="cls-2" d="M321.969,38.987h-1.7l-.92-2.9h-3.219l-.874,2.9H313.6l3.127-9.887H318.7Zm-2.9-4.093-.828-2.575c-.092-.276-.276-.874-.506-1.839h-.046c-.092.414-.23,1.058-.46,1.839l-.828,2.575Z" transform="translate(-313.6 -29.1)"/>
      </g>
      <g id="Group_1020" data-name="Group 1020" transform="translate(9.657 2.621)">
        <path id="Path_933" data-name="Path 933" class="cls-2" d="M341.452,38.279a4.04,4.04,0,0,1-.966,2.851,2.961,2.961,0,0,1-2.161.966,2.177,2.177,0,0,1-2.023-1.012h-.046v3.725h-1.563l-.046-7.68c0-.782-.046-1.518-.046-2.345h1.38l.092,1.1h.046a2.667,2.667,0,0,1,2.391-1.288,2.773,2.773,0,0,1,2.115.966A4.52,4.52,0,0,1,341.452,38.279Zm-1.61.092a2.853,2.853,0,0,0-.46-1.7,1.583,1.583,0,0,0-1.38-.69,1.62,1.62,0,0,0-1.058.414,1.767,1.767,0,0,0-.6,1.012,2.643,2.643,0,0,0-.092.46v1.2a1.993,1.993,0,0,0,.46,1.288,1.7,1.7,0,0,0,2.621-.138A2.989,2.989,0,0,0,339.842,38.371Z" transform="translate(-334.6 -34.6)"/>
      </g>
      <g id="Group_1021" data-name="Group 1021" transform="translate(17.842 2.621)">
        <path id="Path_934" data-name="Path 934" class="cls-2" d="M359.252,38.279a4.04,4.04,0,0,1-.966,2.851,2.961,2.961,0,0,1-2.161.966,2.177,2.177,0,0,1-2.023-1.012h-.046v3.725h-1.563l-.046-7.68c0-.782-.046-1.518-.046-2.345h1.38l.092,1.1h.046a2.667,2.667,0,0,1,2.391-1.288,2.773,2.773,0,0,1,2.115.966A4.332,4.332,0,0,1,359.252,38.279Zm-1.609.046a2.853,2.853,0,0,0-.46-1.7,1.583,1.583,0,0,0-1.38-.69,1.62,1.62,0,0,0-1.058.414,1.767,1.767,0,0,0-.6,1.012,2.649,2.649,0,0,0-.092.46v1.2a1.994,1.994,0,0,0,.46,1.288,1.7,1.7,0,0,0,2.621-.138A3.219,3.219,0,0,0,357.642,38.325Z" transform="translate(-352.4 -34.6)"/>
      </g>
      <g id="Group_1022" data-name="Group 1022" transform="translate(27.729)">
        <path id="Path_935" data-name="Path 935" class="cls-2" d="M380.016,36.028a2.679,2.679,0,0,1-.874,2.069,3.734,3.734,0,0,1-2.667.874,4.748,4.748,0,0,1-2.575-.6l.368-1.334a4.443,4.443,0,0,0,2.3.644,2.06,2.06,0,0,0,1.38-.414,1.375,1.375,0,0,0,.506-1.058,1.352,1.352,0,0,0-.414-1.012,3.774,3.774,0,0,0-1.38-.736c-1.747-.644-2.575-1.563-2.575-2.805a2.338,2.338,0,0,1,.92-1.977,3.646,3.646,0,0,1,2.391-.782,4.683,4.683,0,0,1,2.253.46l-.414,1.288a3.7,3.7,0,0,0-1.885-.46,1.806,1.806,0,0,0-1.288.414,1.132,1.132,0,0,0-.414.874,1.215,1.215,0,0,0,.46.966,4.424,4.424,0,0,0,1.426.736,4.936,4.936,0,0,1,1.885,1.2A2.424,2.424,0,0,1,380.016,36.028Z" transform="translate(-373.9 -28.9)"/>
      </g>
      <g id="Group_1023" data-name="Group 1023" transform="translate(34.627 1.012)">
        <path id="Path_936" data-name="Path 936" class="cls-2" d="M393.315,34.043h-1.747v3.449c0,.874.322,1.334.92,1.334a2.783,2.783,0,0,0,.69-.092l.046,1.2a3.215,3.215,0,0,1-1.242.184,1.942,1.942,0,0,1-1.472-.552,2.693,2.693,0,0,1-.552-1.931V34.043H388.9v-1.2h1.058V31.56l1.563-.46v1.747h1.747Z" transform="translate(-388.9 -31.1)"/>
      </g>
      <g id="Group_1024" data-name="Group 1024" transform="translate(39.961 2.667)">
        <path id="Path_937" data-name="Path 937" class="cls-2" d="M407.444,38.287a4.12,4.12,0,0,1-.92,2.713,3.3,3.3,0,0,1-2.621,1.1,3.1,3.1,0,0,1-2.483-1.012,3.659,3.659,0,0,1-.92-2.621,3.842,3.842,0,0,1,.966-2.713,3.394,3.394,0,0,1,2.575-1.058,3.26,3.26,0,0,1,2.529,1.012A3.871,3.871,0,0,1,407.444,38.287Zm-1.655.046a3.453,3.453,0,0,0-.414-1.7,1.586,1.586,0,0,0-1.426-.828,1.5,1.5,0,0,0-1.426.874,3.331,3.331,0,0,0-.414,1.7,3.453,3.453,0,0,0,.414,1.7,1.62,1.62,0,0,0,2.851-.046A3.331,3.331,0,0,0,405.788,38.333Z" transform="translate(-400.5 -34.7)"/>
      </g>
      <g id="Group_1025" data-name="Group 1025" transform="translate(48.238 2.621)">
        <path id="Path_938" data-name="Path 938" class="cls-2" d="M422.271,36.118a1.724,1.724,0,0,0-.506-.046,1.549,1.549,0,0,0-1.288.644,2.017,2.017,0,0,0-.368,1.426v3.725h-1.564V36.991c0-.828-.046-1.563-.046-2.253h1.38l.046,1.38h.046a2.847,2.847,0,0,1,.782-1.15,1.805,1.805,0,0,1,1.15-.368,1.273,1.273,0,0,1,.414.046Z" transform="translate(-418.5 -34.6)"/>
      </g>
      <g id="Group_1026" data-name="Group 1026" transform="translate(52.745 2.621)">
        <path id="Path_939" data-name="Path 939" class="cls-2" d="M434.646,37.911a3.719,3.719,0,0,1-.046.736h-4.736a1.959,1.959,0,0,0,.69,1.609,2.451,2.451,0,0,0,1.563.506,6.536,6.536,0,0,0,1.931-.322l.23,1.1a6.329,6.329,0,0,1-2.391.46,3.333,3.333,0,0,1-3.587-3.587,3.968,3.968,0,0,1,.874-2.667,2.933,2.933,0,0,1,2.483-1.15A2.683,2.683,0,0,1,434,35.75,3.272,3.272,0,0,1,434.646,37.911Zm-1.517-.414a2.026,2.026,0,0,0-.322-1.2,1.318,1.318,0,0,0-1.242-.644,1.527,1.527,0,0,0-1.242.644,2.138,2.138,0,0,0-.46,1.242Z" transform="translate(-428.3 -34.6)"/>
      </g>
    </g>
    <g id="Group_1041" data-name="Group 1041" transform="translate(31.73 4.231)">
      <g id="Group_1028" data-name="Group 1028" transform="translate(0 0.368)">
        <path id="Path_940" data-name="Path 940" class="cls-2" d="M319.6,13.245a2.527,2.527,0,0,1-.782,1.977,3.007,3.007,0,0,1-2.069.6,8.517,8.517,0,0,1-1.15-.046V10.992a12.147,12.147,0,0,1,1.334-.092,3.018,3.018,0,0,1,1.931.552A2.314,2.314,0,0,1,319.6,13.245Zm-.828.046a1.638,1.638,0,0,0-.46-1.288,1.746,1.746,0,0,0-1.334-.46,2.828,2.828,0,0,0-.644.046v3.633h.506a1.877,1.877,0,0,0,1.38-.506A1.837,1.837,0,0,0,318.773,13.291Z" transform="translate(-315.6 -10.9)"/>
      </g>
      <g id="Group_1029" data-name="Group 1029" transform="translate(4.874 1.701)">
        <path id="Path_941" data-name="Path 941" class="cls-2" d="M329.649,15.547a1.887,1.887,0,0,1-.46,1.334,1.6,1.6,0,0,1-1.288.552,1.7,1.7,0,0,1-1.242-.506,1.774,1.774,0,0,1-.46-1.288,1.887,1.887,0,0,1,.46-1.334,1.573,1.573,0,0,1,1.288-.506,1.7,1.7,0,0,1,1.242.506A1.665,1.665,0,0,1,329.649,15.547Zm-.782.046a1.588,1.588,0,0,0-.23-.828.811.811,0,0,0-.69-.414.713.713,0,0,0-.69.414,1.761,1.761,0,0,0,.046,1.655.782.782,0,0,0,1.38,0A2.2,2.2,0,0,0,328.867,15.593Z" transform="translate(-326.2 -13.8)"/>
      </g>
      <g id="Group_1030" data-name="Group 1030" transform="translate(9.105 1.701)">
        <path id="Path_942" data-name="Path 942" class="cls-2" d="M340.458,13.846l-1.1,3.495h-.69l-.46-1.518a4.669,4.669,0,0,1-.276-1.15h0a5.225,5.225,0,0,1-.276,1.15l-.46,1.518h-.736L335.4,13.846h.782L336.6,15.5c.092.414.184.782.23,1.1h0a9.507,9.507,0,0,1,.276-1.1l.506-1.655h.644l.46,1.609a5.924,5.924,0,0,1,.276,1.15h0c.046-.368.138-.736.23-1.15l.414-1.655Z" transform="translate(-335.4 -13.8)"/>
      </g>
      <g id="Group_1031" data-name="Group 1031" transform="translate(15.083 1.655)">
        <path id="Path_943" data-name="Path 943" class="cls-2" d="M351.481,17.241H350.7V15.263c0-.6-.23-.92-.69-.92a.656.656,0,0,0-.552.276.969.969,0,0,0-.23.6v2.069h-.782V14.8a7.794,7.794,0,0,0-.046-1.012h.69l.046.506h0a.9.9,0,0,1,.414-.414,1.3,1.3,0,0,1,.69-.184,1.108,1.108,0,0,1,.828.322,1.53,1.53,0,0,1,.414,1.15Z" transform="translate(-348.4 -13.7)"/>
      </g>
      <g id="Group_1032" data-name="Group 1032" transform="translate(19.544 0.092)">
        <path id="Path_944" data-name="Path 944" class="cls-2" d="M358.882,15.4H358.1V10.3h.782Z" transform="translate(-358.1 -10.3)"/>
      </g>
      <g id="Group_1033" data-name="Group 1033" transform="translate(21.429 1.655)">
        <path id="Path_945" data-name="Path 945" class="cls-2" d="M365.649,15.447a1.887,1.887,0,0,1-.46,1.334,1.6,1.6,0,0,1-1.288.552,1.7,1.7,0,0,1-1.242-.506,1.774,1.774,0,0,1-.46-1.288,1.887,1.887,0,0,1,.46-1.334,1.573,1.573,0,0,1,1.288-.506,1.7,1.7,0,0,1,1.242.506A1.665,1.665,0,0,1,365.649,15.447Zm-.782.046a1.588,1.588,0,0,0-.23-.828.811.811,0,0,0-.69-.414.713.713,0,0,0-.69.414,1.761,1.761,0,0,0,.046,1.655.782.782,0,0,0,1.38,0A2.2,2.2,0,0,0,364.867,15.493Z" transform="translate(-362.2 -13.7)"/>
      </g>
      <g id="Group_1034" data-name="Group 1034" transform="translate(25.844 1.701)">
        <path id="Path_946" data-name="Path 946" class="cls-2" d="M374.605,17.295h-.69l-.046-.414h0a1.221,1.221,0,0,1-1.012.506.947.947,0,0,1-.782-.322.936.936,0,0,1-.276-.69,1.081,1.081,0,0,1,.552-.966,2.864,2.864,0,0,1,1.518-.322v-.046c0-.46-.23-.69-.736-.69a1.658,1.658,0,0,0-.92.276l-.138-.506a2.428,2.428,0,0,1,1.2-.322c.92,0,1.38.46,1.38,1.426v1.288A1.536,1.536,0,0,0,374.605,17.295Zm-.828-1.2v-.552c-.874,0-1.288.23-1.288.69a.562.562,0,0,0,.138.414.522.522,0,0,0,.368.138.59.59,0,0,0,.46-.184.67.67,0,0,0,.276-.414C373.777,16.191,373.777,16.145,373.777,16.1Z" transform="translate(-371.8 -13.8)"/>
      </g>
      <g id="Group_1035" data-name="Group 1035" transform="translate(29.752)">
        <path id="Path_947" data-name="Path 947" class="cls-2" d="M383.611,15.25h-.69l-.046-.552h0a1.189,1.189,0,0,1-1.1.644,1.375,1.375,0,0,1-1.058-.506,1.884,1.884,0,0,1-.414-1.288,2,2,0,0,1,.46-1.38,1.375,1.375,0,0,1,1.058-.506,1,1,0,0,1,.966.46h0V10.1h.782v4.139A6.5,6.5,0,0,0,383.611,15.25Zm-.828-1.472v-.828a.954.954,0,0,0-.276-.46.692.692,0,0,0-.506-.184.873.873,0,0,0-.69.368,1.311,1.311,0,0,0-.23.874,1.365,1.365,0,0,0,.23.828.827.827,0,0,0,.69.322.683.683,0,0,0,.6-.276A.973.973,0,0,0,382.783,13.779Z" transform="translate(-380.3 -10.1)"/>
      </g>
      <g id="Group_1036" data-name="Group 1036" transform="translate(36.236 1.609)">
        <path id="Path_948" data-name="Path 948" class="cls-2" d="M397.849,15.347a1.887,1.887,0,0,1-.46,1.334,1.6,1.6,0,0,1-1.288.552,1.7,1.7,0,0,1-1.242-.506,1.774,1.774,0,0,1-.46-1.288,1.887,1.887,0,0,1,.46-1.334,1.573,1.573,0,0,1,1.288-.506,1.7,1.7,0,0,1,1.242.506A1.665,1.665,0,0,1,397.849,15.347Zm-.782.046a1.588,1.588,0,0,0-.23-.828.811.811,0,0,0-.69-.414.713.713,0,0,0-.69.414,1.761,1.761,0,0,0,.046,1.655.811.811,0,0,0,.69.414.759.759,0,0,0,.69-.414A2.2,2.2,0,0,0,397.067,15.393Z" transform="translate(-394.4 -13.6)"/>
      </g>
      <g id="Group_1037" data-name="Group 1037" transform="translate(40.789 1.655)">
        <path id="Path_949" data-name="Path 949" class="cls-2" d="M407.381,17.195H406.6V15.218c0-.6-.23-.92-.69-.92a.656.656,0,0,0-.552.276.969.969,0,0,0-.23.6v2.069h-.782V14.758a7.794,7.794,0,0,0-.046-1.012h.69l.046.552h0a.9.9,0,0,1,.414-.414,1.3,1.3,0,0,1,.69-.184,1.108,1.108,0,0,1,.828.322,1.53,1.53,0,0,1,.414,1.15Z" transform="translate(-404.3 -13.7)"/>
      </g>
      <g id="Group_1038" data-name="Group 1038" transform="translate(46.905 0.782)">
        <path id="Path_950" data-name="Path 950" class="cls-2" d="M419.761,13.226h-.874v1.7c0,.414.138.644.46.644a.9.9,0,0,0,.368-.046v.6a2.04,2.04,0,0,1-.6.092.971.971,0,0,1-.736-.276,1.294,1.294,0,0,1-.276-.92V13.272H417.6v-.6h.506V12.03l.782-.23v.874h.874Z" transform="translate(-417.6 -11.8)"/>
      </g>
      <g id="Group_1039" data-name="Group 1039" transform="translate(50.17 0.046)">
        <path id="Path_951" data-name="Path 951" class="cls-2" d="M427.735,15.258h-.782V13.281c0-.644-.23-.92-.69-.92a.733.733,0,0,0-.736.552c0,.092-.046.184-.046.276V15.3H424.7V10.2h.782v2.115h0a1.216,1.216,0,0,1,1.058-.6.947.947,0,0,1,.782.322,1.53,1.53,0,0,1,.414,1.15Z" transform="translate(-424.7 -10.2)"/>
      </g>
      <g id="Group_1040" data-name="Group 1040" transform="translate(54.308 1.518)">
        <path id="Path_952" data-name="Path 952" class="cls-2" d="M436.827,15.055a.9.9,0,0,1-.046.368h-2.345a1.03,1.03,0,0,0,.322.782,1.063,1.063,0,0,0,.782.23,2.059,2.059,0,0,0,.92-.184l.138.552a3.012,3.012,0,0,1-1.15.23,1.6,1.6,0,0,1-1.747-1.747,2.19,2.19,0,0,1,.414-1.334,1.512,1.512,0,0,1,1.242-.552,1.337,1.337,0,0,1,1.15.552A1.833,1.833,0,0,1,436.827,15.055Zm-.736-.184a1.273,1.273,0,0,0-.138-.6.716.716,0,0,0-1.2,0,1.354,1.354,0,0,0-.23.6Z" transform="translate(-433.7 -13.4)"/>
      </g>
    </g>
  </g>
</svg>
