<svg xmlns="http://www.w3.org/2000/svg" viewBox="-2870.989 1248.099 88.972 39.043">
  <defs>
    <style>
      .cls-1 {
        fill: #fefeff;
      }

      .cls-2 {
        fill: #0ca3d3;
      }

      .cls-3 {
        fill: #193d6a;
      }

      .cls-4 {
        fill: #96a6ae;
      }

      .cls-5 {
        fill: #96a5ae;
      }

      .cls-6 {
        fill: #95a5ad;
      }

      .cls-7 {
        fill: #96a6af;
      }

      .cls-8 {
        fill: #95a5ae;
      }

      .cls-9 {
        fill: #93a4ac;
      }

      .cls-10 {
        fill: #94a4ad;
      }

      .cls-11 {
        fill: #fdfefe;
      }

      .cls-12 {
        fill: #eff0f1;
      }

      .cls-13 {
        fill: #f4f5f5;
      }

      .cls-14 {
        fill: #fafafb;
      }
    </style>
  </defs>
  <g xmlns="http://www.w3.org/2000/svg" id="Group_1044" data-name="Group 1044" transform="translate(-2870.989 1248.099)">
    <path id="Path_954" 
data-name="Path 954" class="cls-2" d="M0,19.574A18.592,18.592,0,0,1,2.776,9.546,18.8,18.8,0,0,1,16.327.3,18.913,18.913,0,0,1,32.074,4.656,18.821,18.821,0,0,1,38.58,15.6a15.671,15.671,0,0,1,.373,3.937H12.763a4.218,4.218,0,0,1,.124-1.45,6.475,6.475,0,0,1,5.429-5.138,6.455,6.455,0,0,1,6.63,2.735,1,1,0,0,0,.912.456c1.865-.041,3.73,0,5.594,0a1.193,1.193,0,0,0,.539-.041,2.68,2.68,0,0,0-.166-.539A12.985,12.985,0,0,0,18.648,6.6a12.694,12.694,0,0,0-9.78,5.387,12.749,12.749,0,0,0-2.486,7.666C4.31,19.533,2.155,19.533,0,19.574Z" transform="translate(0 -0.021)"/>
    <path id="Path_955" data-name="Path 955" class="cls-3" d="M12.8,47.1h26.19a18.666,18.666,0,0,1-3.647,11.354,19.129,19.129,0,0,1-13.634,8.039A19.548,19.548,0,0,1,.456,51.285,20.146,20.146,0,0,1,0,47.141q3.232-.062,6.465,0c.041.539.041,1.119.124,1.658A13.028,13.028,0,0,0,29.3,55.719a12.674,12.674,0,0,0,2.776-5.138c-.083,0-.124-.041-.166-.041h-6.34c-.249,0-.332.124-.456.29a6.574,6.574,0,0,1-6.879,2.859A6.659,6.659,0,0,1,12.8,47.1Z" transform="translate(0 -27.589)"/>
  </g>
    <path id="Path_953" data-name="Path 953" class="cls-1" d="M38.953,19.527a13.962,13.962,0,0,0-.373-3.937,19.107,19.107,0,0,0-6.465-10.94A18.814,18.814,0,0,0,16.369.3,18.858,18.858,0,0,0,2.776,9.5,18.732,18.732,0,0,0,0,19.569a19.836,19.836,0,0,0,.456,4.144A19.53,19.53,0,0,0,21.673,38.921a18.994,18.994,0,0,0,13.634-8.039A18.32,18.32,0,0,0,38.953,19.527Zm39.285.29c.041,0,.083,0,.083-.041.332.58.622,1.16.912,1.782a.538.538,0,0,0,.5.332h2.445c.29,0,.456-.083.456-.373.041-.414.29-.58.7-.5a1.01,1.01,0,0,0,.5,0c.29-.041.456.083.456.373.041.456.29.58.7.539a2.342,2.342,0,0,1,.539,0c.332.041.414-.083.332-.414-.332-1.036-.663-2.072-.995-3.067-.414-1.326-.414-1.285-1.782-1.285a.492.492,0,0,0-.539.373c-.414,1.243-.829,2.445-1.243,3.647a.875.875,0,0,1-.29.539c-.373-.622-.663-1.2-1.077-1.782a.808.808,0,0,1,0-.995c.373-.539.663-1.119,1.077-1.782a12.371,12.371,0,0,1-1.243,0,.558.558,0,0,0-.663.414c-.249.58-.539,1.119-.787,1.658a4.908,4.908,0,0,1-.083-1.077c-.041-1.119.207-.953-.995-.995-.373,0-.5.124-.456.5v3.315c0,1.16-.207.995,1.077,1.036.29,0,.414-.083.414-.373C78.238,20.936,78.238,20.4,78.238,19.817ZM47.365,26.7c-.041.829,0,1.616,0,2.4,0,1.119,0,1.119,1.119,1.036h.041c.207,0,.29-.083.29-.29V25.7c0-.249-.083-.332-.332-.332H46.951c-.207,0-.29.041-.332.249l-.373,1.616c-.083.332-.166.7-.249,1.036-.249-.746-.456-1.492-.622-2.2s-.166-.7-.87-.7H43.47c-.29,0-.456.083-.414.414v3.937c0,.29.083.456.373.414H43.8c.373.041.5-.083.5-.5-.041-.912,0-1.865,0-2.776.29.953.539,1.906.787,2.9.083.249.166.414.456.373a2,2,0,0,1,.5,0c.373.041.539-.124.622-.5C46.868,28.685,47.117,27.691,47.365,26.7Zm23.786-7.791V17.5c0-.332-.124-.414-.414-.414-.746,0-1.492.041-2.2,0-.414,0-.5.124-.5.5a6.408,6.408,0,0,1-.7,2.776c-.041.124-.083.29-.207.29-.58,0-.414.414-.414.7V22.76c0,.166-.041.332.207.373.829.166,1.077,0,1.036-.787,0-.373.083-.539.5-.5a12.2,12.2,0,0,0,1.74,0c.414-.041.5.124.5.5,0,.787,0,.787.787.787h.166c.249.041.373-.041.373-.373v-1.74c0-.29-.124-.414-.414-.373s-.373-.083-.373-.373A13.477,13.477,0,0,1,71.152,18.906ZM43.014,11.157v1.989c0,.29.083.414.414.373h2.818c.746,0,.787,0,.746.7,0,.456.124.58.58.539H47.9q.373.062.373-.373v-1.74c0-.29-.083-.414-.373-.373s-.373-.124-.332-.373V9.748c0-1.077,0-1.036-1.036-.995-.249,0-.332.083-.332.332v1.989c0,1.285,0,1.285-1.285,1.243-.332,0-.373-.124-.373-.414V9.789c0-1.036,0-1.036-1.036-1.036-.332,0-.456.083-.414.414C43.056,9.872,43.014,10.535,43.014,11.157Zm17.9,16.866V26.406c0-.953,0-.953-.953-.912H59.88c-.207,0-.29.083-.29.29v4.144c0,.166,0,.29.207.29.58,0,1.119.083,1.492-.58A16.665,16.665,0,0,1,62.7,27.691a.145.145,0,0,1,.083.041v1.575c0,.995,0,.995,1.036.953.249,0,.332-.083.332-.332v-4.02c0-.124.041-.249-.083-.332a1.978,1.978,0,0,0-1.45.207C62.076,26.448,61.538,27.152,60.916,28.022Zm9.365-.207V29.8c0,.124-.041.332.166.332a3.6,3.6,0,0,0,1.16-.041c.29-.124.083-.58.124-.87a2.342,2.342,0,0,0,0-.539c-.041-.29.124-.373.373-.29.414.083.912-.249,1.243.207.041.083,0,.207,0,.29v.953c0,.207.083.373.332.332.373-.083.787.207,1.119-.166V25.743c0-.124,0-.29-.207-.29H73.514c-.207,0-.166.207-.166.332a3.344,3.344,0,0,1-.041,1.119c-.166.622-.746.166-1.119.29-.166.041-.5.124-.456-.29v-.456c0-1.119,0-1.077-1.119-1.036-.249,0-.332.083-.332.332C70.323,26.448,70.281,27.111,70.281,27.815Zm-20.8.041a2.241,2.241,0,0,0,2.321,2.4,2.328,2.328,0,0,0,2.4-2.486,2.275,2.275,0,0,0-2.321-2.445A2.386,2.386,0,0,0,49.479,27.857Zm30.748-.083a2.275,2.275,0,0,0-2.321-2.445,2.386,2.386,0,0,0-2.4,2.528,2.273,2.273,0,0,0,2.4,2.362A2.232,2.232,0,0,0,80.227,27.774ZM57.186,11.115V9.623c0-.87,0-.829-.829-.87-.414,0-.58.083-.539.539.041,1.285,0,1.285-1.285,1.243h-.041c-.249.041-.332-.083-.332-.332v-.5c0-1.077,0-1.036-1.077-.953-.249,0-.29.083-.29.332v4.061c0,.249.124.332.332.332,1.036.041,1.036.041,1.036-.953,0-.829,0-.829.87-.829.787,0,.787,0,.787.787,0,1.036,0,1.036,1.036.995.29,0,.332-.124.332-.373Q57.186,12.172,57.186,11.115Zm12.183,16.7V25.785c0-.29-.083-.373-.373-.373H66.386c-.249,0-.373.083-.414.332a19.722,19.722,0,0,1-.456,2.652c-.083.29-.166.58-.539.663-.58.124-.166.58-.249.829s.166.29.373.332a1.394,1.394,0,0,0,1.616-1.16,8.364,8.364,0,0,0,.373-2.031c.041-.332.124-.456.456-.456.373,0,.332.249.332.456V29.1c0,1.077,0,1.077,1.077,1.036.29,0,.414-.083.414-.373C69.37,29.141,69.37,28.478,69.37,27.815Zm-12.68-2.362H55.28c-.207,0-.332.041-.332.29v4.144c0,.207.041.29.249.29a23.26,23.26,0,0,0,2.4-.041,1.42,1.42,0,0,0,1.368-1.616c-.041-.746-.622-1.2-1.492-1.243h-.787c-.29,0-.373-.083-.373-.373s.083-.414.373-.414h.953c.787,0,.787,0,.746-.787,0-.249-.083-.332-.332-.332A7.578,7.578,0,0,1,56.689,25.453ZM63.4,11.7v1.492c0,.207,0,.373.29.373a17.293,17.293,0,0,0,2.072-.041,1.59,1.59,0,0,0,1.575-1.658,1.369,1.369,0,0,0-1.368-1.45c-.332-.041-.829.166-1.036-.124a2.023,2.023,0,0,1-.041-1.119c0-.29-.083-.373-.373-.373-.622,0-1.285.041-1.906,0-.414,0-.5.124-.5.5-.041.5.124.7.622.622h.29c.29-.041.414.083.414.373C63.4,10.742,63.4,11.239,63.4,11.7ZM65.64,21.889h.332c.58,0,.58,0,.414-.539-.332-.995-.663-1.948-.953-2.942-.414-1.326-.414-1.326-1.782-1.326a.492.492,0,0,0-.539.373c-.373,1.16-.787,2.279-1.16,3.439-.332.995-.332.995.7.995.332,0,.58-.041.58-.456.041-.332.207-.5.539-.456a3.992,3.992,0,0,0,.7,0c.207,0,.373.083.373.29C64.853,21.889,65.226,21.931,65.64,21.889ZM49.023,17.082c-1.077.041-.787-.166-1.16.829l-.995,2.859c-.373,1.119-.373,1.119.829,1.077.29,0,.456-.083.456-.373a.523.523,0,0,1,.663-.539,2.342,2.342,0,0,0,.539,0c.29-.041.414.124.414.373.041.456.249.58.663.539a1.671,1.671,0,0,1,.456,0c.456.041.539-.083.414-.539-.414-1.16-.746-2.321-1.119-3.439-.332-.995-.124-.787-1.077-.787Zm8.537,2.4v1.658c0,.787-.083.7.7.7.7,0,.7,0,.7-.663v-.456c-.041-.373.124-.456.456-.414a2.136,2.136,0,0,0,1.409-.373,1.618,1.618,0,0,0,.58-1.74,1.378,1.378,0,0,0-1.285-1.036c-.7-.083-1.409-.041-2.113-.083-.29,0-.414.083-.414.373C57.6,18.16,57.559,18.823,57.559,19.486Zm10.36-8.329v1.492c0,.87,0,.87.87.912.456,0,.58-.124.539-.539a1.665,1.665,0,0,1,.041-.912c.166-.249.58-.083.87-.124a1.672,1.672,0,0,0,1.533-1.7,1.441,1.441,0,0,0-1.616-1.45H68.334c-.332,0-.456.083-.414.414C67.919,9.872,67.919,10.494,67.919,11.157Zm-18.938,0v2.031c0,.29.083.373.373.373h2.362c.124,0,.249.041.332-.166.207-.58-.041-.953-.663-.953h-.622c-.249,0-.373-.041-.373-.332,0-.249.041-.414.373-.373h.58c.414.041.539-.124.539-.539-.041-.622,0-.622-.663-.622h-.5c-.249.041-.332-.083-.332-.332s.041-.373.332-.373h.87c.5.041.332-.332.332-.58s.083-.539-.373-.539c-.746.041-1.492,0-2.2,0-.29,0-.373.124-.373.414C49.023,9.83,48.981,10.494,48.981,11.157ZM74.8,21.931c.29-.041.539-.041.829-.083.456-.083.622-.539.456-1.119-.124-.414-.414-.041-.58-.041a1.291,1.291,0,0,1-1.658-.829,1.231,1.231,0,0,1,1.492-1.575c.249.041.539.249.663.083s.041-.5.083-.746c.041-.332-.124-.5-.414-.5a4.764,4.764,0,0,0-1.533.041A2.429,2.429,0,0,0,72.27,19.9,2.2,2.2,0,0,0,74.8,21.931Zm9.655,6.879c-.787.249-1.492.5-2.072-.249a1.388,1.388,0,0,1,0-1.492c.58-.746,1.326-.456,2.072-.332v-.87c0-.29-.083-.414-.373-.456a4.506,4.506,0,0,0-1.492,0A2.378,2.378,0,0,0,80.724,27.4c-.124,1.409.29,2.238,1.326,2.652a3.085,3.085,0,0,0,1.492.166c.87-.041.912-.124.912-.953ZM43.014,18.284a3.91,3.91,0,0,1,1.119-.249c.249.041.5.041.539.373s-.207.414-.456.456a3.136,3.136,0,0,1-.622.041c-.124,0-.249,0-.29.166-.124.58,0,.787.58.829a2.08,2.08,0,0,1,.5.083c.249.041.5.166.456.5-.041.29-.29.373-.539.414a2.919,2.919,0,0,1-1.2-.166c-.083-.041-.207-.124-.249-.041a1.84,1.84,0,0,0-.041.829c0,.207.166.249.332.29a4.416,4.416,0,0,0,1.948.041,1.373,1.373,0,0,0,1.2-1.077c.083-.7-.083-.995-.953-1.409.083-.041.124-.083.166-.083a1.142,1.142,0,0,0,.663-1.16c-.041-.539-.373-.787-.87-.953a4.011,4.011,0,0,0-1.2-.083C43.014,17.082,42.931,17.207,43.014,18.284ZM86.9,25.453H85.241c-.166,0-.332-.041-.373.207-.124.7,0,.87.663.87h.083c.414-.041.539.083.539.5-.041.7,0,1.409,0,2.113,0,1.036,0,1.036,1.036,1.036.373,0,.456-.124.414-.456v-2.2c0-.912,0-.953.953-.953.456,0,.414-.29.414-.539,0-.29.041-.58-.414-.539C88.017,25.453,87.437,25.453,86.9,25.453ZM59.134,11.737v.829c0,1.036,0,.995,1.036.995.29,0,.373-.083.373-.373V10.866c0-.953,0-.995.953-.953.5,0,.414-.249.414-.539s.041-.58-.414-.58c-1.077.041-2.113.041-3.191,0-.414,0-.5.124-.5.539-.041.5.166.663.622.58h.332c.332-.041.456.083.414.414C59.134,10.784,59.134,11.239,59.134,11.737Zm-5.221,7.749v1.409c0,.995,0,.995.995.953.332,0,.414-.124.414-.456V19.444c0-1.243,0-1.243,1.2-1.243h.041c.373.041.456-.166.414-.456s.166-.7-.414-.7H54.327c-.29,0-.414.083-.414.414Z" transform="translate(0 -0.016)"/>
    <path id="Path_954" data-name="Path 954" class="cls-2" d="M0,19.574A18.592,18.592,0,0,1,2.776,9.546,18.8,18.8,0,0,1,16.327.3,18.913,18.913,0,0,1,32.074,4.656,18.821,18.821,0,0,1,38.58,15.6a15.671,15.671,0,0,1,.373,3.937H12.763a4.218,4.218,0,0,1,.124-1.45,6.475,6.475,0,0,1,5.429-5.138,6.455,6.455,0,0,1,6.63,2.735,1,1,0,0,0,.912.456c1.865-.041,3.73,0,5.594,0a1.193,1.193,0,0,0,.539-.041,2.68,2.68,0,0,0-.166-.539A12.985,12.985,0,0,0,18.648,6.6a12.694,12.694,0,0,0-9.78,5.387,12.749,12.749,0,0,0-2.486,7.666C4.31,19.533,2.155,19.533,0,19.574Z" transform="translate(0 -0.021)"/>
    <path id="Path_955" data-name="Path 955" class="cls-3" d="M12.8,47.1h26.19a18.666,18.666,0,0,1-3.647,11.354,19.129,19.129,0,0,1-13.634,8.039A19.548,19.548,0,0,1,.456,51.285,20.146,20.146,0,0,1,0,47.141q3.232-.062,6.465,0c.041.539.041,1.119.124,1.658A13.028,13.028,0,0,0,29.3,55.719a12.674,12.674,0,0,0,2.776-5.138c-.083,0-.124-.041-.166-.041h-6.34c-.249,0-.332.124-.456.29a6.574,6.574,0,0,1-6.879,2.859A6.659,6.659,0,0,1,12.8,47.1Z" transform="translate(0 -27.589)"/>
    <path id="Path_956" data-name="Path 956" class="cls-4" d="M186.692,43.807v1.658c0,.29-.083.414-.414.373-1.285-.041-1.036.124-1.077-1.036V41.486c0-.373.083-.5.456-.5,1.2.041.953-.124.995.995a4.726,4.726,0,0,0,.083,1.077c.249-.539.539-1.077.787-1.658a.558.558,0,0,1,.663-.414,12.37,12.37,0,0,0,1.243,0c-.373.622-.7,1.2-1.077,1.782a.713.713,0,0,0,0,.995c.414.58.7,1.16,1.077,1.782.207-.166.207-.332.29-.539.414-1.2.87-2.445,1.243-3.647.083-.29.207-.373.539-.373,1.368,0,1.368-.041,1.782,1.285.332,1.036.663,2.072.995,3.067.124.332.041.456-.332.414a2.342,2.342,0,0,0-.539,0c-.414.041-.663-.083-.7-.539,0-.29-.166-.414-.456-.373a1.01,1.01,0,0,1-.5,0c-.414-.041-.663.083-.7.5-.041.29-.166.373-.456.373h-2.445a.483.483,0,0,1-.5-.332c-.29-.58-.622-1.16-.912-1.782C186.775,43.807,186.733,43.807,186.692,43.807Zm5.3-1.658c-.166.539-.29,1.036-.414,1.492-.041.124-.083.249.041.29a1.029,1.029,0,0,0,.7,0c.124-.041.083-.207.041-.29C192.245,43.185,192.12,42.73,192,42.149Z" transform="translate(-108.454 -24.006)"/>
    <path id="Path_957" data-name="Path 957" class="cls-5" d="M108.21,62.585c-.249.995-.5,1.989-.7,2.984-.083.373-.249.539-.622.5a2,2,0,0,0-.5,0c-.29.041-.414-.124-.456-.373-.249-.953-.5-1.906-.787-2.9,0,.912-.041,1.865,0,2.776,0,.414-.124.539-.5.5h-.373c-.332.041-.373-.124-.373-.414V61.714c0-.332.124-.414.414-.414a8.641,8.641,0,0,0,1.036,0c.7,0,.7,0,.87.7a21.79,21.79,0,0,0,.622,2.2c.083-.332.166-.7.249-1.036.124-.539.29-1.077.373-1.616.041-.207.124-.249.332-.249h1.533c.249,0,.332.083.332.332v4.144c0,.207-.083.29-.29.29h-.041c-1.119.083-1.119.083-1.119-1.036C108.21,64.2,108.168,63.413,108.21,62.585Z" transform="translate(-60.844 -35.904)"/>
    <path id="Path_958" data-name="Path 958" class="cls-6" d="M165.3,43.073v1.409c0,.29.083.414.373.373s.414.083.414.373v1.74c0,.29-.124.373-.373.373h-.166c-.787,0-.829,0-.787-.787,0-.373-.083-.539-.5-.5a12.2,12.2,0,0,1-1.74,0c-.414-.041-.5.124-.5.5,0,.829-.207.953-1.036.787-.249-.041-.207-.207-.207-.373V45.559c0-.332-.124-.7.414-.7.124,0,.166-.166.207-.29a6.559,6.559,0,0,0,.7-2.776c0-.373.124-.539.5-.5a19.411,19.411,0,0,0,2.2,0c.332,0,.456.083.414.414A7.579,7.579,0,0,1,165.3,43.073Zm-1.368.622V42.7c0-.166-.041-.29-.249-.29-.166,0-.331,0-.331.207a8.319,8.319,0,0,1-.539,1.989c-.083.166,0,.207.166.249.829.124.953.041.953-.787Z" transform="translate(-94.148 -24.183)"/>
    <path id="Path_959" data-name="Path 959" class="cls-6" d="M103.683,23.486V21.5c0-.332.124-.414.414-.414,1.036,0,1.036,0,1.036,1.036v2.113c0,.29.041.414.373.414,1.285.041,1.285.041,1.285-1.243V21.414c0-.249.083-.332.332-.332,1.077-.041,1.036-.041,1.036.995v2.155c0,.249.041.414.332.373s.373.083.373.373v1.74c0,.29-.124.373-.373.373h-.332c-.414.041-.58-.083-.58-.539.041-.7,0-.7-.746-.7h-2.818c-.29,0-.414-.083-.414-.373A10.659,10.659,0,0,0,103.683,23.486Z" transform="translate(-60.669 -12.345)"/>
    <path id="Path_960" data-name="Path 960" class="cls-7" d="M145.126,63.892c.622-.829,1.16-1.575,1.7-2.321a1.978,1.978,0,0,1,1.45-.207c.124.083.083.207.083.332v4.02c0,.249-.083.332-.332.332-1.036.041-1.036.041-1.036-.953V63.519a.145.145,0,0,1-.083-.041,15.429,15.429,0,0,0-1.409,1.948c-.373.663-.912.622-1.492.58-.207,0-.207-.166-.207-.29V61.572c0-.207.083-.332.29-.29h.083c.953-.041.953-.041.953.912Z" transform="translate(-84.21 -35.886)"/>
    <path id="Path_961" data-name="Path 961" class="cls-8" d="M169.6,63.74V61.709c0-.249.083-.332.332-.332,1.119-.041,1.119-.083,1.119,1.036v.456c0,.373.29.332.456.29.373-.124.912.332,1.119-.29a9.737,9.737,0,0,0,.041-1.119c0-.124-.041-.332.166-.332H173.9c.207,0,.207.124.207.29v4.268c-.332.373-.746.083-1.119.166-.249.041-.332-.083-.332-.332v-.953c0-.083.041-.207,0-.29-.332-.456-.829-.124-1.243-.207-.207-.041-.373.041-.373.29v.539c-.041.29.166.746-.124.87a3.6,3.6,0,0,1-1.16.041c-.207,0-.166-.207-.166-.332v-.041Q169.6,64.672,169.6,63.74Z" transform="translate(-99.314 -35.941)"/>
    <path id="Path_962" data-name="Path 962" class="cls-6" d="M119.4,63.628a2.34,2.34,0,0,1,2.4-2.528,2.275,2.275,0,0,1,2.321,2.445,2.351,2.351,0,0,1-2.4,2.486A2.241,2.241,0,0,1,119.4,63.628Zm1.492-.041a1.359,1.359,0,0,0,.207.87.753.753,0,0,0,1.036.29,1.542,1.542,0,0,0,.083-2.238.781.781,0,0,0-.332-.083C121.265,62.3,120.892,62.758,120.892,63.586Z" transform="translate(-69.921 -35.787)"/>
    <path id="Path_963" data-name="Path 963" class="cls-6" d="M186.866,63.6A2.319,2.319,0,0,1,184.5,66.09a2.273,2.273,0,0,1-2.4-2.362,2.363,2.363,0,0,1,2.4-2.528A2.23,2.23,0,0,1,186.866,63.6Zm-1.492.041a1.61,1.61,0,0,0-.083-.622.8.8,0,0,0-.746-.58.81.81,0,0,0-.787.539,1.672,1.672,0,0,0,.041,1.409.819.819,0,0,0,.746.5.8.8,0,0,0,.746-.539A1.381,1.381,0,0,0,185.374,63.645Z" transform="translate(-106.639 -35.846)"/>
    <path id="Path_964" data-name="Path 964" class="cls-9" d="M131.793,23.475v2.031c0,.249-.041.373-.332.373-1.036.041-1.036.041-1.036-.995,0-.787,0-.787-.787-.787-.87,0-.87,0-.87.829,0,.995,0,.995-1.036.953-.249,0-.332-.083-.332-.332V21.486c0-.207.083-.29.29-.332,1.077-.083,1.077-.083,1.077.953v.5c0,.249.083.332.332.332h.041c1.285.041,1.326.041,1.285-1.243,0-.456.124-.539.539-.539.829.041.829,0,.829.87C131.793,22.522,131.793,23.019,131.793,23.475Z" transform="translate(-74.606 -12.375)"/>
    <path id="Path_965" data-name="Path 965" class="cls-5" d="M160.771,63.7v1.948c0,.29-.124.373-.414.373-1.077,0-1.077.041-1.077-1.036V62.916c0-.207.041-.456-.332-.456s-.456.166-.456.456a8.364,8.364,0,0,1-.373,2.031,1.415,1.415,0,0,1-1.616,1.16c-.207-.041-.456-.083-.373-.332.083-.29-.29-.7.249-.829.332-.083.456-.373.539-.663a19.725,19.725,0,0,0,.456-2.652c.041-.29.124-.332.414-.332H160.4c.29,0,.373.083.373.373Z" transform="translate(-91.402 -35.904)"/>
    <path id="Path_966" data-name="Path 966" class="cls-10" d="M134.326,61.4h1.368c.249,0,.29.083.332.332.041.746.041.746-.746.746h-.953c-.332,0-.373.124-.373.414s.083.373.373.373h.787c.87.041,1.45.5,1.492,1.243a1.42,1.42,0,0,1-1.368,1.616c-.787.041-1.616,0-2.4.041-.207,0-.29-.124-.249-.29V61.732c0-.249.124-.29.332-.29C133.373,61.4,133.829,61.4,134.326,61.4Zm-.373,3.232c0,.58,0,.58.414.58.5,0,.787-.207.746-.58-.041-.456-.414-.456-.746-.5C133.953,64.135,133.911,64.384,133.953,64.632Z" transform="translate(-77.637 -35.963)"/>
    <path id="Path_967" data-name="Path 967" class="cls-8" d="M151.117,24.1V22.692c0-.29-.124-.414-.414-.373h-.29c-.5.083-.663-.124-.622-.622.041-.373.083-.5.5-.5.622.041,1.285,0,1.906,0,.29,0,.373.083.373.373,0,.373-.124.829.041,1.119s.663.083,1.036.124a1.369,1.369,0,0,1,1.368,1.45,1.567,1.567,0,0,1-1.575,1.658c-.7.041-1.368,0-2.072.041-.29,0-.29-.166-.29-.373C151.117,25.1,151.117,24.6,151.117,24.1Zm1.45.29c.124.166-.166.539.332.539.373,0,.663-.166.663-.58s-.249-.58-.622-.58C152.4,23.769,152.651,24.142,152.568,24.391Z" transform="translate(-87.715 -12.421)"/>
    <path id="Path_968" data-name="Path 968" class="cls-5" d="M152.87,46.066c-.373.083-.746,0-.787-.58,0-.207-.166-.29-.373-.29a4,4,0,0,1-.7,0c-.373-.041-.539.124-.539.456-.041.373-.249.456-.58.456-1.077,0-1.077,0-.7-.995.373-1.16.787-2.279,1.16-3.439a.468.468,0,0,1,.539-.373c1.368,0,1.368,0,1.782,1.326.29.995.622,1.948.953,2.942.166.539.166.539-.414.539A.712.712,0,0,0,152.87,46.066ZM151.3,42.295c-.166.622-.29,1.077-.414,1.575-.041.083-.083.207.041.249a1.2,1.2,0,0,0,.663,0c.124,0,.124-.124.124-.249A10.7,10.7,0,0,1,151.3,42.295Z" transform="translate(-87.23 -24.192)"/>
    <path id="Path_969" data-name="Path 969" class="cls-5" d="M114.887,41.2h.041c.995.041.746-.166,1.077.787.373,1.16.746,2.321,1.119,3.439.166.414.041.58-.414.539a1.679,1.679,0,0,0-.456,0c-.414.083-.663-.083-.663-.539,0-.249-.166-.373-.414-.373a2.342,2.342,0,0,1-.539,0c-.414-.041-.663.083-.663.539,0,.29-.207.373-.456.373-1.2.041-1.2.041-.829-1.077l.995-2.859C114.1,41.034,113.809,41.241,114.887,41.2Zm-.041,1.077c-.166.58-.249,1.077-.373,1.575-.041.083-.083.207.041.249a1.2,1.2,0,0,0,.663,0c.124,0,.124-.124.083-.249C115.135,43.355,115.011,42.858,114.845,42.277Z" transform="translate(-65.864 -24.134)"/>
    <path id="Path_970" data-name="Path 970" class="cls-10" d="M138.832,43.593V41.562c0-.29.124-.414.414-.373a18.021,18.021,0,0,1,2.113.083,1.378,1.378,0,0,1,1.285,1.036,1.618,1.618,0,0,1-.58,1.74,2.075,2.075,0,0,1-1.409.373c-.332-.041-.5.083-.456.414v.456c0,.663,0,.7-.7.663-.829,0-.7.083-.7-.7C138.832,44.711,138.832,44.173,138.832,43.593Zm1.409-.746c.124.166-.207.622.332.58.373-.041.622-.166.622-.58s-.207-.58-.622-.58C140.117,42.225,140.282,42.557,140.241,42.847Z" transform="translate(-81.273 -24.123)"/>
    <path id="Path_971" data-name="Path 971" class="cls-10" d="M163.9,23.562V21.614c0-.332.124-.414.414-.414.622.041,1.2,0,1.823,0a1.463,1.463,0,0,1,1.616,1.45,1.672,1.672,0,0,1-1.533,1.7c-.29.041-.7-.124-.87.124a1.665,1.665,0,0,0-.041.912c.041.414-.083.58-.539.539-.87-.041-.87,0-.87-.912C163.9,24.557,163.9,24.059,163.9,23.562Zm1.367-.787c.083.249-.166.622.373.622a.524.524,0,0,0,.58-.58.621.621,0,0,0-.663-.622C165.1,22.195,165.35,22.568,165.267,22.775Z" transform="translate(-95.981 -12.421)"/>
    <path id="Path_972" data-name="Path 972" class="cls-6" d="M118.2,23.562V21.614c0-.29.083-.414.373-.414.746,0,1.492.041,2.2,0,.456,0,.373.29.373.539s.166.622-.332.58h-.87c-.29,0-.332.124-.332.373s.083.373.332.332h.5c.663,0,.622,0,.663.622,0,.414-.124.58-.539.539a2.715,2.715,0,0,0-.58,0c-.29-.041-.373.124-.373.373,0,.29.124.332.373.332h.622c.622,0,.87.373.663.953a.3.3,0,0,1-.332.166h-2.362c-.29,0-.373-.083-.373-.373C118.241,24.888,118.2,24.225,118.2,23.562Z" transform="translate(-69.219 -12.421)"/>
    <path id="Path_973" data-name="Path 973" class="cls-8" d="M176.9,45.99c-1.492,0-2.4-.663-2.528-2.072a2.373,2.373,0,0,1,1.865-2.735,4.731,4.731,0,0,1,1.533-.041c.29.041.456.166.414.5-.041.249.083.58-.083.746-.124.166-.456-.083-.663-.083a1.231,1.231,0,0,0-1.492,1.575,1.291,1.291,0,0,0,1.658.829c.166-.041.456-.414.58.041.166.622,0,1.036-.456,1.119A4.971,4.971,0,0,1,176.9,45.99Z" transform="translate(-102.105 -24.075)"/>
    <path id="Path_974" data-name="Path 974" class="cls-6" d="M198.5,64.587v.456c0,.87-.041.912-.912.953a3.085,3.085,0,0,1-1.492-.166c-1.036-.414-1.45-1.285-1.326-2.652a2.428,2.428,0,0,1,1.865-1.989,3.619,3.619,0,0,1,1.492,0c.29.041.414.166.373.456v.87c-.746-.124-1.492-.414-2.072.332a1.388,1.388,0,0,0,0,1.492C197.008,65.084,197.753,64.836,198.5,64.587Z" transform="translate(-114.046 -35.793)"/>
    <path id="Path_975" data-name="Path 975" class="cls-6" d="M103.41,42.334c-.083-1.119,0-1.2,1.036-1.243a3.835,3.835,0,0,1,1.2.083,1.206,1.206,0,0,1,.87.953,1.088,1.088,0,0,1-.663,1.16.314.314,0,0,1-.166.083c.829.414,1.036.7.953,1.409a1.288,1.288,0,0,1-1.2,1.077,5.136,5.136,0,0,1-1.948-.041c-.166-.041-.332-.083-.332-.29a1.84,1.84,0,0,1,.041-.829c.041-.083.166,0,.249.041a1.994,1.994,0,0,0,1.2.166c.249-.041.5-.124.539-.414s-.207-.414-.456-.5a2.08,2.08,0,0,0-.5-.083c-.58,0-.746-.249-.58-.829.041-.166.166-.166.29-.166a3.136,3.136,0,0,0,.622-.041c.249-.041.5-.124.456-.456s-.29-.373-.539-.373C104.156,42.044,103.825,42.292,103.41,42.334Z" transform="translate(-60.396 -24.066)"/>
    <path id="Path_976" data-name="Path 976" class="cls-5" d="M206.746,61.338H208.4c.456,0,.414.29.414.539,0,.29,0,.539-.414.539-.953,0-.953.041-.953.953v2.2c0,.332-.041.456-.414.456-1.036,0-1.036,0-1.036-1.036,0-.7-.041-1.409,0-2.113.041-.414-.124-.58-.539-.5h-.083c-.663,0-.829-.207-.663-.87.041-.249.207-.207.373-.207C205.627,61.338,206.166,61.338,206.746,61.338Z" transform="translate(-119.847 -35.901)"/>
    <path id="Path_977" data-name="Path 977" class="cls-10" d="M140.768,24.142V22.733c0-.332-.124-.456-.414-.414h-.332c-.456.083-.622-.083-.622-.58,0-.373.083-.539.5-.539,1.077.041,2.113.041,3.191,0,.5,0,.414.249.414.58,0,.29.041.58-.414.539-.953-.041-.953,0-.953.953v2.321c0,.29-.083.373-.373.373-1.036.041-1.036.041-1.036-.995A5.836,5.836,0,0,0,140.768,24.142Z" transform="translate(-81.633 -12.421)"/>
    <path id="Path_978" data-name="Path 978" class="cls-6" d="M130.1,43.545V41.514c0-.29.083-.414.414-.414h2.238c.58,0,.373.414.414.7s-.041.539-.414.456h-.041c-1.2,0-1.2,0-1.2,1.243v1.948c0,.29-.041.414-.414.456-.995,0-.995.041-.995-.953Z" transform="translate(-76.187 -24.075)"/>
    <path id="Path_979" data-name="Path 979" class="cls-11" d="M21.882,28.67A6.721,6.721,0,0,0,34.189,32.4a.562.562,0,0,1,.456-.29h6.34a.313.313,0,0,1,.166.041,13.042,13.042,0,0,1-14.007,9.49,13.029,13.029,0,0,1-11.52-11.272c-.083-.539-.083-1.119-.124-1.658A13.087,13.087,0,0,1,27.766,15.658a12.985,12.985,0,0,1,13.178,8.951c.041.166.124.373.166.539a1.234,1.234,0,0,1-.539.041H34.977a1,1,0,0,1-.912-.456A6.455,6.455,0,0,0,27.435,22a6.475,6.475,0,0,0-5.429,5.138A3.917,3.917,0,0,0,21.882,28.67Z" transform="translate(-9.077 -9.158)"/>
    <path id="Path_980" data-name="Path 980" class="cls-12" d="M200.976,43.8c.166.58.249,1.036.373,1.492.041.124.083.249-.041.29a1.027,1.027,0,0,1-.7,0c-.124-.041-.041-.207-.041-.29C200.686,44.836,200.81,44.38,200.976,43.8Z" transform="translate(-117.434 -25.656)"/>
    <path id="Path_981" data-name="Path 981" class="cls-13" d="M166.773,45.281v.373c0,.829-.166.953-.953.787-.166-.041-.249-.083-.166-.249a7.825,7.825,0,0,0,.539-1.989c.041-.249.166-.207.332-.207.207,0,.249.124.249.29Q166.773,44.784,166.773,45.281Z" transform="translate(-96.989 -25.77)"/>
    <path id="Path_982" data-name="Path 982" class="cls-14" d="M123,65.4c0-.829.373-1.243.995-1.2a.781.781,0,0,1,.332.083,1.541,1.541,0,0,1-.083,2.238.753.753,0,0,1-1.036-.29A1.456,1.456,0,0,1,123,65.4Z" transform="translate(-72.029 -37.598)"/>
    <path id="Path_983" data-name="Path 983" class="cls-14" d="M187.465,65.4a1.34,1.34,0,0,1-.124.7.8.8,0,0,1-.746.539.866.866,0,0,1-.746-.5,1.676,1.676,0,0,1-.041-1.409.775.775,0,0,1,.787-.539.759.759,0,0,1,.746.58A.78.78,0,0,1,187.465,65.4Z" transform="translate(-108.73 -37.602)"/>
    <path id="Path_984" data-name="Path 984" class="cls-13" d="M135.882,68.535c-.041-.249,0-.539.414-.456.332.041.7.041.746.5.041.373-.249.58-.746.58C135.882,69.116,135.882,69.116,135.882,68.535Z" transform="translate(-79.566 -39.866)"/>
    <path id="Path_985" data-name="Path 985" class="cls-13" d="M156.5,28.022c.083-.249-.166-.622.332-.622a.556.556,0,0,1,.622.58c0,.414-.29.539-.663.58C156.334,28.6,156.624,28.187,156.5,28.022Z" transform="translate(-91.647 -16.052)"/>
    <path id="Path_986" data-name="Path 986" class="cls-12" d="M153.976,43.7c.166.622.29,1.119.414,1.616a.185.185,0,0,1-.124.249,1.2,1.2,0,0,1-.663,0c-.124-.041-.041-.166-.041-.249C153.686,44.819,153.81,44.322,153.976,43.7Z" transform="translate(-89.911 -25.598)"/>
    <path id="Path_987" data-name="Path 987" class="cls-12" d="M117.635,43.8c.166.58.29,1.077.414,1.575a.166.166,0,0,1-.083.249,1.2,1.2,0,0,1-.663,0c-.124-.041-.041-.166-.041-.249A14.163,14.163,0,0,1,117.635,43.8Z" transform="translate(-68.653 -25.656)"/>
    <path id="Path_988" data-name="Path 988" class="cls-13" d="M142.3,44.317c.041-.29-.124-.663.373-.622.373.041.622.207.622.58a.554.554,0,0,1-.622.58C142.093,44.939,142.424,44.483,142.3,44.317Z" transform="translate(-83.332 -25.593)"/>
    <path id="Path_989" data-name="Path 989" class="cls-14" d="M167.2,24.18c.083-.207-.166-.58.29-.58a.6.6,0,0,1,.663.622.593.593,0,0,1-.58.58C167.034,24.8,167.283,24.429,167.2,24.18Z" transform="translate(-97.913 -13.827)"/>
  </g>
</svg>
