<svg xmlns="http://www.w3.org/2000/svg" viewBox="-2291 4461.968 40 40.001">
  <defs>
    <style>
      .cls-1 {
        fill: #fff;
      }

      .cls-1, .cls-2 {
        fill-rule: evenodd;
      }

      .cls-2 {
        fill: #868686;
      }
    </style>
  </defs>
  <g id="instagram" transform="translate(-3174 4225)">
    <path id="instagram_bg" class="cls-1" d="M903,236.968a20,20,0,1,1-20,20A20,20,0,0,1,903,236.968Z"/>
    <path id="instagram_icn" class="cls-2" d="M909.672,263.732a4.712,4.712,0,0,1-3.381,1.262H899.71a4.713,4.713,0,0,1-3.382-1.262A4.528,4.528,0,0,1,895,260.3v-6.617a4.46,4.46,0,0,1,4.71-4.692h6.641a4.653,4.653,0,0,1,3.381,1.323A4.577,4.577,0,0,1,911,253.686V260.3A4.762,4.762,0,0,1,909.672,263.732ZM909,253.98a3.12,3.12,0,0,0-.774-2.156,2.961,2.961,0,0,0-2.212-.83h-6.083A2.685,2.685,0,0,0,897,253.925v6.083a3.048,3.048,0,0,0,.83,2.212,3.116,3.116,0,0,0,2.156.774h6.028a3.017,3.017,0,0,0,2.156-.774,2.831,2.831,0,0,0,.83-2.157Zm-2,.014a1,1,0,1,1,1-1A.987.987,0,0,1,907,253.994Zm-4.029,7a4,4,0,0,1,0-8,4,4,0,1,1,0,8Zm.029-6a2,2,0,1,0,2,2A2,2,0,0,0,903,254.995Z"/>
  </g>
</svg>
