<svg xmlns="http://www.w3.org/2000/svg" viewBox="-2933 4463 103.899 27.051">
  <defs>
    <style>
      .cls-1 {
        fill: #add147;
      }
    </style>
  </defs>
  <g id="Symbol_2_12" data-name="Symbol 2 – 12" transform="translate(-3461 4118)">
    <g id="Group_2" data-name="Group 2" transform="translate(528 345)">
      <path id="Path_9" data-name="Path 9" class="cls-1" d="M0,.615A.551.551,0,0,1,.2.171.839.839,0,0,1,.717,0L15.472.034c.478,0,.683.2.683.615V4.782c0,.41-.239.615-.683.615H10.793l-.034,20.869c0,.41-.239.615-.683.615h-4c-.478,0-.683-.2-.683-.615L5.431,5.4.683,5.362a.839.839,0,0,1-.512-.171A.649.649,0,0,1,0,4.748Z" transform="translate(0 0)"/>
    </g>
    <g id="Group_3" data-name="Group 3" transform="translate(547.4 345.034)">
      <path id="Path_10" data-name="Path 10" class="cls-1" d="M56.868.715q0-.615.717-.615h3.962a.839.839,0,0,1,.512.171.74.74,0,0,1,.171.478l-.068,25.616a.507.507,0,0,1-.2.444.839.839,0,0,1-.512.171H57.483c-.478,0-.683-.2-.683-.615Z" transform="translate(-56.8 -0.1)"/>
    </g>
    <g id="Group_4" data-name="Group 4" transform="translate(557.237 345.034)">
      <path id="Path_11" data-name="Path 11" class="cls-1" d="M85.6,21.447l.034-15.814A5.276,5.276,0,0,1,87.239,1.5,6.96,6.96,0,0,1,91.919.1h3.723a6.472,6.472,0,0,1,4.543,1.435,5.249,5.249,0,0,1,1.605,4.1V7.58a.551.551,0,0,1-.2.444.839.839,0,0,1-.512.171h-4c-.444,0-.683-.2-.683-.615V7.033q0-1.537-1.742-1.537H92.738Q91,5.5,91,7.033l-.034,13.013q0,1.537,1.742,1.537h1.913q1.742,0,1.742-1.537V19.5c0-.41.239-.615.683-.615h4a.839.839,0,0,1,.512.171.551.551,0,0,1,.2.444v1.947a5.152,5.152,0,0,1-1.605,4.1,6.466,6.466,0,0,1-4.543,1.4H91.885a7.022,7.022,0,0,1-4.679-1.4A5.043,5.043,0,0,1,85.6,21.447Z" transform="translate(-85.6 -0.1)"/>
    </g>
    <g id="Group_5" data-name="Group 5" transform="translate(597.779 345.137)">
      <path id="Path_12" data-name="Path 12" class="cls-1" d="M238.318.742a.8.8,0,0,0-.683-.273H233.3a.983.983,0,0,0-.991.615l-4.645,10.144L223.085,1.049a.983.983,0,0,0-.991-.615h-4.338L205.017.4a.74.74,0,0,0-.478.171.524.524,0,0,0-.171.444L204.3,26.631a.59.59,0,0,0,.171.444.676.676,0,0,0,.478.171l14.721.034c.478,0,.683-.2.683-.615V22.5a.618.618,0,0,0-.137-.478.753.753,0,0,0-.546-.137l-10.007-.034V16.521h4.645c.478,0,.683-.2.683-.649l-.034-4.064c0-.444-.239-.649-.683-.649h-4.645l.034-5.4,9.563.034,5.67,11.442-.034,9.29c0,.512.273.786.854.786H229.4c.581,0,.854-.239.854-.751l.034-9.29L238.352,1.39a.675.675,0,0,0,.068-.342A.477.477,0,0,0,238.318.742Z" transform="translate(-204.3 -0.4)"/>
    </g>
    <g id="Group_6" data-name="Group 6" transform="translate(577.764 345.102)">
      <path id="Path_13" data-name="Path 13" class="cls-1" d="M162.333,26.292l-6.9-13.935,6.933-11.135c.239-.342.137-.888-.239-.888L157.893.3h-.512a.482.482,0,0,0-.41.273l-5.362,8.266-.546.82L151.1.915a.551.551,0,0,0-.2-.444A.839.839,0,0,0,150.379.3h-3.962c-.478,0-.683.2-.683.615l-.034,20.22v5.4c0,.41.239.615.683.615h3.962a.839.839,0,0,0,.512-.171.551.551,0,0,0,.2-.444V19.29l.512-.82.82-1.3,4.543,9.666a.482.482,0,0,0,.41.273h4.748C162.436,27.18,162.573,26.634,162.333,26.292Z" transform="translate(-145.7 -0.3)"/>
    </g>
  </g>
</svg>
