<svg xmlns="http://www.w3.org/2000/svg" viewBox="-2093 2846 322.527 20.769">
  <defs>
    <style>
      .cls-1 {
        fill: #fdfdfd;
      }

      .cls-2 {
        fill: #e5262c;
      }

      .cls-3 {
        fill: #f59f25;
      }

      .cls-4 {
        fill: #2c336d;
      }

      .cls-5 {
        fill: #324286;
      }

      .cls-6 {
        fill: #3a9cd2;
      }

      .cls-7 {
        fill: #18509b;
      }

      .cls-8 {
        fill: #2b3d7a;
      }

      .cls-9 {
        fill: #1f4a91;
      }

      .cls-10 {
        fill: #ef6728;
      }

      .cls-11 {
        fill: #525151;
      }

      .cls-12 {
        fill: #3b3a3a;
      }

      .cls-13 {
        fill: #2c4684;
      }
    </style>
  </defs>
  <g id="Group_1076" data-name="Group 1076" transform="translate(-2093.047 2846.035)">
    <path id="Path_1053" data-name="Path 1053" class="cls-1" d="M92.44,9.285c-.982-.116,0-2.368-1.56-1.56-.809.4-2.195-.693-2.368.751a30.092,30.092,0,0,0-.058,4.563c0,.4.231.751.693.693.4-.058.578-.462.578-.866a15.439,15.439,0,0,1,.058-2.311c.289-1.56,1.1-2.311,2.657-1.271.462.866-.116,1.791.4,2.715.52,1.04,1.213,1.848,2.368,1.791,1.155,0,3.177.289,3.35-.578A24.257,24.257,0,0,0,98.621,5.3c-1.906.231-.4,2.657-2.137,2.311C94.577,7.206,93.711,8.534,92.44,9.285Zm224.466,7.567c.809.4.751,1.271,1.04,1.906.809,1.906,2.542.693,3.812.924,1.1.173.809-.693.693-1.329C321.3,13.155,320.141,7.9,319.1,2.7c-.231-1.1-.635-1.444-1.791-1.675-3.581-.751-4.679,1.733-5.834,4.217-2.022,4.737-4.1,9.473-6.181,14.383,3.581.231,3.581.231,6.065-2.137a2.43,2.43,0,0,1,1.848-.462C314.423,16.91,315.636,16.91,316.907,16.852Zm-17.675-.982a8.959,8.959,0,0,1-5.083-.231c-.866-.289-1.906-1.04-1.964.751-.058,1.155-1.5,2.773.809,3.177,2.253.462,4.505,1.1,6.758.058a6.553,6.553,0,0,0,4.968-3.235c1.733-3,.52-5.545-3.35-7.856-1.1-.635-3.061-.982-2.542-2.6.578-1.791,2.542-1.329,4.043-1.271a2.591,2.591,0,0,1,1.1.289c1.271.635,1.675,0,1.848-1.155.116-1.04,1.1-2.311-.809-2.715-3.408-.751-6.643-.809-9.415,1.675-2.83,2.83-2.83,5.083.058,7.74.866,1.04,2.2,1.386,3.292,2.079C300.56,13.675,300.906,14.715,299.231,15.87ZM14.518,17.834c4.39,2.773,8.9,2.311,11.9-1.271a9.257,9.257,0,0,0-.231-11.9C23.125,1.2,18.562.794,14.518,3.624h-.578C9.9.794,5.507,1.256,2.33,4.78A8.94,8.94,0,0,0,2.1,16.448c3,3.639,7.509,4.217,11.841,1.5A2.052,2.052,0,0,1,14.518,17.834ZM262.841,1.083l-.173.693c4.448.173,6.181,2.773,6.816,6.758.52,3.177,1.617,6.3,2.426,9.473.231.982.4,2.022,1.733,1.733,1.444-.347,3.408,1.04,4.332-1.04,2.484-5.776,4.91-11.553,7.336-17.444-4.968-.4-4.968-.4-6.643,3.812-1.04,2.6-2.079,5.2-3.408,8.549-.751-3.87-1.386-6.874-1.906-9.935-.231-1.5-.866-2.542-2.484-2.6ZM147.719.216c-4.448,0-4.448,0-5.025,4.39-.462,3.35-.809,6.7-1.5,9.935-.462,2.079.231,2.368,2.079,2.426,1.964,0,1.906-1.271,2.022-2.426.173-2.253.982-3.639,3.524-3.177a4.206,4.206,0,0,0,1.675-.231,6.444,6.444,0,0,0,4.737-6.989c-.347-3.119-2.657-3.7-5.2-3.87A15.245,15.245,0,0,0,147.719.216ZM190.291.043c-4.621,0-4.679,0-5.314,4.506-.52,3.408-.982,6.816-1.56,10.224-.289,1.5.116,2.079,1.733,2.137,1.964.116,2.6-.809,2.6-2.542,0-2.079.751-3.292,3.061-3.061a7.625,7.625,0,0,0,2.253-.347,6.375,6.375,0,0,0,4.505-7.1C197.28,1.314,195.547.1,192.023.043Zm16.174,16.809c2.311.058,2.542-.058,2.946-2.079.462-2.426.635-4.968,1.1-7.394.289-1.444-.4-1.56-1.5-1.675-1.271-.116-2.484.52-3.87.116a6.453,6.453,0,0,0-8.433,6.354,4.655,4.655,0,0,0,5.6,4.91A7.388,7.388,0,0,1,206.464,16.852ZM161.178,5.588a6.231,6.231,0,0,0-6.469,5.025c-.924,3.812,1.04,6.932,4.505,6.585,2.079-.231,4.043-.866,6.123-.347,1.04.231,1.5-.52,1.675-1.5.347-2.542.751-5.083,1.155-7.682.173-1.271-.116-2.311-1.56-1.848C164.528,6.455,162.68,5.7,161.178,5.588Zm14.267,6.527c-.924-3.466-1.1-6.816-5.6-6.065.578,4.794,5.661,9.646-.4,14.556,4.159.289,4.159.289,5.892-2.253L182.261,8.13c.4-.578,1.271-1.271.809-2.022-.52-.809-1.56-.289-2.368-.347-1.04-.116-1.5.693-1.964,1.444C177.7,8.592,176.774,10.036,175.445,12.116Zm116.8-10.859C287.332.91,287.39.91,286.466,5.3c-.751,3.755-1.617,7.509-2.31,11.264-.231,1.1-1.5,2.773.866,3.119,1.791.289,3.408.116,3.812-2.311C289.874,12.058,291.087,6.744,292.242,1.256ZM212.991,16.794c1.329.173,1.848-.462,2.022-1.791.578-4.159,1.329-8.318,1.906-12.477.173-.982.982-2.368-1.1-2.542-1.56-.116-2.542.231-2.715,2.079-.52,4.274-1.155,8.549-1.906,12.766C210.912,16.563,211.547,16.91,212.991,16.794ZM34.331,10.44a17.167,17.167,0,0,0,0,1.733c.058.635-.173,1.56.751,1.56s.635-.982.751-1.56c.173-1.1-.578-3.061,1.155-3.061,2.022,0,.982,2.022,1.271,3.177v.289c.058.578.058,1.213.866,1.155.578-.058.578-.635.693-1.1.289-1.271-.809-3.524,1.213-3.524,2.079,0,.866,2.253,1.155,3.524.173.693.52,1.675,1.155.982.982-1.155.52-2.715.289-4.159A1.93,1.93,0,0,0,41.436,7.61a13.988,13.988,0,0,1-4.39,0C35.082,7.437,33.58,8.188,34.331,10.44Zm30.961.982a20.2,20.2,0,0,0,2.137-.231c.693-.116,1.733.4,1.964-.635a2.361,2.361,0,0,0-1.1-2.484,2.5,2.5,0,0,0-3.408.173,3.158,3.158,0,0,0-.751,3.928,2.855,2.855,0,0,0,3.292,1.675c.635-.058,1.56-.289,1.5-.924-.058-1.213-.924-.4-1.5-.347C66.62,12.751,65.927,12.693,65.292,11.422Zm21.372-.578c1.04-2.83-.866-3.292-2.946-3.235-1.906,0-2.946,1.213-2.946,3.177s1.04,3.119,2.946,3.119C85.566,13.848,87.761,13.906,86.664,10.845Zm-35.871,0c.924-2.888-.982-3.235-3-3.235-1.964,0-2.946,1.329-2.888,3.177s1.04,3.119,3,3.061C49.7,13.791,51.833,13.791,50.793,10.845ZM57.147,8.3c-1.617-.866-3.466-1.5-4.39.289-1.5,2.773,2.022,2.253,3.177,3.524a2.218,2.218,0,0,1-2.542.289c-.462-.231-.693-.058-.924.289a.484.484,0,0,0,.173.693,3.534,3.534,0,0,0,3.292.347,1.64,1.64,0,0,0,1.329-1.675c0-1.444-1.04-1.617-2.079-1.964-.462-.173-1.213.058-1.213-.693C54.721,7.783,56.223,9.978,57.147,8.3Zm5.6.4c-.231-1.56-1.964-.4-2.137-1.906-.173-1.271-.4-1.155-1.386,0-1.733,2.079.924,3.466.231,5.2a1.442,1.442,0,0,0,1.1,1.791c.866.231,1.906.4,2.368-.924-.982-.4-2.311-.116-2.311-1.906C60.613,9.285,61.479,8.881,62.75,8.708Zm12.188,2.022a3.091,3.091,0,0,0,4.1,3c.4-.173.924-.4.809-.982-.116-.635-.578-.52-1.1-.347-1.386.462-2.368-.116-2.426-1.56-.058-1.56.809-2.311,2.368-1.848.462.116.924.347,1.1-.347.116-.635-.4-.809-.809-.982C77.133,6.917,74.938,8.592,74.938,10.729Zm-4.217-.173a10.831,10.831,0,0,0,0,1.386c.116.693-.347,1.848.809,1.791,1.04-.058.578-1.213.693-1.906.173-.866-.347-1.906.578-2.657.52-.4,1.906-.116,1.5-1.213S72.8,7.9,72.05,7.9C69.508,7.783,71.357,9.863,70.721,10.556Z"/>
    <path id="Path_1054" data-name="Path 1054" class="cls-2" d="M13.941,19.177C9.608,21.892,5.1,21.372,2.1,17.675A8.943,8.943,0,0,1,2.33,6.007c3.177-3.524,7.625-3.986,11.61-1.155a15.913,15.913,0,0,1-.982,1.675,8.4,8.4,0,0,0,.058,10.917A3.392,3.392,0,0,1,13.941,19.177Z" transform="translate(0 -1.285)"/>
    <path id="Path_1055" data-name="Path 1055" class="cls-3" d="M25.1,4.862C29.143,2.09,33.707,2.494,36.768,5.9A9.258,9.258,0,0,1,37,17.8c-3,3.581-7.509,4.043-11.9,1.271A9.927,9.927,0,0,0,25.1,4.862Z" transform="translate(-10.582 -1.296)"/>
    <path id="Path_1056" data-name="Path 1056" class="cls-4" d="M454.831,1.9H462.8c1.675,0,2.253,1.1,2.484,2.6.52,3,1.155,6.007,1.906,9.935,1.329-3.35,2.368-5.95,3.408-8.549,1.675-4.217,1.675-4.217,6.643-3.812-2.484,5.834-4.852,11.668-7.336,17.444-.924,2.079-2.888.693-4.332,1.04-1.329.289-1.444-.751-1.733-1.733-.751-3.177-1.906-6.238-2.426-9.473-.635-3.986-2.311-6.585-6.816-6.758A3.251,3.251,0,0,0,454.831,1.9Z" transform="translate(-191.99 -0.817)"/>
    <path id="Path_1057" data-name="Path 1057" class="cls-5" d="M250.826.381c.751,0,1.56-.058,2.311,0,2.542.231,4.852.809,5.2,3.87a6.406,6.406,0,0,1-4.737,6.989,4.348,4.348,0,0,1-1.675.231c-2.6-.4-3.35.924-3.524,3.177-.058,1.155-.058,2.484-2.022,2.426-1.848,0-2.542-.347-2.079-2.426.693-3.292,1.1-6.643,1.5-9.935C246.378.381,246.378.381,250.826.381ZM248.862,7.89c2.022.231,4.159,1.155,4.968-1.5.347-1.155.173-2.311-1.329-2.657C248.631,2.807,250.421,6.735,248.862,7.89Z" transform="translate(-103.107 -0.165)"/>
    <path id="Path_1058" data-name="Path 1058" class="cls-6" d="M324.33.1h1.733c3.466.058,5.256,1.271,5.545,3.812a6.321,6.321,0,0,1-4.505,7.1,7.625,7.625,0,0,1-2.253.347c-2.311-.231-3.061,1.04-3.061,3.061,0,1.733-.635,2.657-2.6,2.542-1.56-.116-1.964-.635-1.733-2.137.578-3.408,1.04-6.816,1.56-10.224C319.709.1,319.709.1,324.33.1Zm-1.386,6.065c-.173,1.213.058,2.079,1.56,1.906s2.484-.866,2.542-2.542c.058-1.444-.635-2.022-2.079-2.079C322.943,3.392,322.943,4.721,322.943,6.165Z" transform="translate(-134.039 -0.057)"/>
    <path id="Path_1059" data-name="Path 1059" class="cls-5" d="M511.416,3.324C514.188.84,517.481.84,520.831,1.648c1.906.4.924,1.675.809,2.715-.173,1.155-.578,1.791-1.848,1.155a2.591,2.591,0,0,0-1.1-.289c-1.5-.058-3.466-.52-4.043,1.271-.52,1.617,1.5,1.964,2.542,2.6,3.928,2.311,5.141,4.794,3.35,7.856a6.27,6.27,0,0,1-4.968,3.235c-1.213-.116-2.542.289-4.274-.635,2.079-.578,4.448-.347,3.755-3.119,1.675-1.213,1.328-2.253-.231-3.235-1.1-.693-2.426-.982-3.292-2.079.866-1.386,2.484-.289,3.523-.982a7.686,7.686,0,0,1-1.386-2.079c-.462-1.329-1.617-.52-2.311-.982a1.349,1.349,0,0,1-.231-1.791c.347-.52.635.4,1.04.462.058.058.173.058.231.116-.058-.058-.173-.116-.231-.173C512.051,4.883,512.4,3.9,511.416,3.324Z" transform="translate(-215.766 -0.508)"/>
    <path id="Path_1060" data-name="Path 1060" class="cls-6" d="M350.219,20.907c-1.271-.462-2.715-.058-4.217.231a4.655,4.655,0,0,1-5.6-4.91c.116-4.563,4.1-7.682,8.433-6.354,1.386.4,2.6-.173,3.87-.116,1.155.116,1.791.231,1.5,1.675-.462,2.426-.635,4.91-1.1,7.394C352.761,20.849,352.472,20.965,350.219,20.907Zm-3.292-2.888a2.911,2.911,0,0,0,3.061-3.061,2.179,2.179,0,0,0-2.484-2.484,3.155,3.155,0,0,0-3.235,3.35C344.269,17.5,345.367,18.077,346.927,18.019Z" transform="translate(-143.755 -4.055)"/>
    <path id="Path_1061" data-name="Path 1061" class="cls-5" d="M274.063,9.7c1.56.116,3.408.866,5.372.231,1.444-.462,1.791.578,1.56,1.848-.4,2.542-.809,5.083-1.155,7.682-.116.982-.578,1.733-1.675,1.5-2.137-.462-4.1.116-6.123.347-3.408.4-5.43-2.715-4.505-6.585A6.346,6.346,0,0,1,274.063,9.7Zm-2.946,6.758c-.058,1.1.924,2.022,2.426,1.964a3.233,3.233,0,0,0,3.35-3.292,2.244,2.244,0,0,0-2.484-2.542C272.388,12.7,271.175,13.743,271.118,16.458Z" transform="translate(-112.885 -4.112)"/>
    <path id="Path_1062" data-name="Path 1062" class="cls-7" d="M539.1,5.917c1.155-2.484,2.195-4.968,5.834-4.217,1.155.231,1.56.52,1.791,1.675,1.04,5.256,2.2,10.455,3.35,15.654.116.635.4,1.5-.693,1.329-1.271-.231-2.946.982-3.812-.924-.289-.693-.231-1.56-1.04-1.906-1.271-.347-2.83.462-3.986-.751.578-.924,1.791-.058,2.253-1.04-.173-.866-1.213-.52-1.5-1.155.982-.4,2.83-.462,2.773-1.329-.116-1.906.173-4.1-1.56-5.661C541.179,7.477,540.255,6.437,539.1,5.917Z" transform="translate(-227.681 -0.675)"/>
    <path id="Path_1063" data-name="Path 1063" class="cls-5" d="M299.265,16.272c1.329-2.079,2.253-3.524,3.235-4.91.462-.693.924-1.5,1.964-1.444.809.058,1.906-.462,2.368.347.462.751-.4,1.386-.809,2.022l-6.932,10.224c-1.733,2.542-1.733,2.542-5.892,2.253,6.065-4.91.982-9.762.4-14.556C298.11,9.456,298.341,12.806,299.265,16.272Z" transform="translate(-123.82 -4.157)"/>
    <path id="Path_1064" data-name="Path 1064" class="cls-8" d="M499.587,2.1c-1.155,5.487-2.368,10.8-3.408,16.174-.462,2.368-2.022,2.542-3.812,2.311-2.368-.347-1.1-2.022-.866-3.119.693-3.755,1.56-7.509,2.31-11.264C494.735,1.755,494.735,1.755,499.587,2.1Z" transform="translate(-207.345 -0.845)"/>
    <path id="Path_1065" data-name="Path 1065" class="cls-9" d="M536.876,17.722c.289.635,1.328.289,1.5,1.155-.4.982-1.675.058-2.253,1.04,1.155,1.213,2.715.4,3.986.751-1.213.058-2.484.058-3.7.116a2.373,2.373,0,0,0-1.848.462c-2.426,2.368-2.426,2.368-6.065,2.137,2.079-4.91,4.159-9.646,6.181-14.383,1.155.578,2.022,1.617,3.408,1.733a52.78,52.78,0,0,1-1.906,5.025C535.6,16.856,535.489,17.491,536.876,17.722Z" transform="translate(-223.204 -3.816)"/>
    <path id="Path_1066" data-name="Path 1066" class="cls-6" d="M367.341,16.8c-1.444.116-2.079-.231-1.791-1.964.751-4.217,1.386-8.491,1.906-12.766.231-1.791,1.155-2.195,2.715-2.079,2.022.173,1.213,1.56,1.1,2.542-.635,4.159-1.329,8.318-1.906,12.477C369.189,16.334,368.669,16.969,367.341,16.8Z" transform="translate(-154.349 -0.001)"/>
    <path id="Path_1067" data-name="Path 1067" class="cls-10" d="M22.508,6.2c4.39,4.506,3.581,10.455,0,14.267-.173,0-.4.058-.578.058a3.635,3.635,0,0,0-.924-1.733,8.4,8.4,0,0,1-.058-10.917A15.914,15.914,0,0,0,21.93,6.2Z" transform="translate(-7.989 -2.633)"/>
    <path id="Path_1068" data-name="Path 1068" class="cls-11" d="M59.256,16c-.751-2.253.751-3,2.773-2.83a13.983,13.983,0,0,0,4.39,0c1.1-.231,1.964.635,2.195,1.848.231,1.386.693,3-.289,4.159-.578.693-.982-.231-1.155-.982-.347-1.213.924-3.524-1.155-3.524-2.022,0-.924,2.253-1.213,3.524-.116.462-.116,1.04-.693,1.1-.809.058-.809-.578-.866-1.155v-.289c-.289-1.155.751-3.177-1.271-3.177-1.733,0-.982,1.906-1.155,3.061-.116.635.231,1.56-.751,1.56-.924,0-.693-.924-.751-1.56A8.081,8.081,0,0,1,59.256,16Z" transform="translate(-24.925 -5.563)"/>
    <path id="Path_1069" data-name="Path 1069" class="cls-12" d="M160,13.186c1.213-.693,2.079-2.079,3.928-1.675,1.733.4.231-2.079,2.137-2.311a24.256,24.256,0,0,1-.058,7.914c-.173.809-2.195.52-3.35.578-1.155,0-1.791-.809-2.368-1.791-.4-.924.173-1.906-.289-2.715Zm5.083,1.5c-.116-.982-.578-1.848-1.675-1.906-1.155-.116-1.733.635-1.791,1.733a1.685,1.685,0,0,0,1.56,2.022C164.274,16.594,164.737,15.785,165.083,14.687Z" transform="translate(-67.56 -3.9)"/>
    <path id="Path_1070" data-name="Path 1070" class="cls-12" d="M111.891,16.934c.635,1.271,1.329,1.329,2.137,1.155.578-.116,1.386-.866,1.5.347.058.693-.866.866-1.5.924a2.919,2.919,0,0,1-3.292-1.675,3.187,3.187,0,0,1,.751-3.928,2.561,2.561,0,0,1,3.408-.173,2.456,2.456,0,0,1,1.1,2.484c-.231,1.04-1.271.52-1.964.635A20.2,20.2,0,0,1,111.891,16.934Z" transform="translate(-46.599 -5.511)"/>
    <path id="Path_1071" data-name="Path 1071" class="cls-13" d="M512.483,27.035c.693,2.715-1.675,2.484-3.755,3.119,1.733.924,3.061.52,4.274.635-2.253,1.04-4.563.4-6.758-.058-2.311-.462-.866-2.022-.809-3.177.058-1.791,1.1-1.04,1.964-.751A8.059,8.059,0,0,0,512.483,27.035Z" transform="translate(-213.251 -11.165)"/>
    <path id="Path_1072" data-name="Path 1072" class="cls-12" d="M145.734,16.392c1.04,3-1.155,2.946-2.888,3-1.906.058-2.946-1.155-2.946-3.119a2.827,2.827,0,0,1,2.946-3.177C144.925,13.1,146.832,13.562,145.734,16.392Zm-1.1-.058a1.61,1.61,0,0,0-1.617-1.906,1.7,1.7,0,0,0-1.791,1.791,1.7,1.7,0,0,0,1.675,1.906C144,18.183,144.521,17.432,144.637,16.335Z" transform="translate(-59.07 -5.548)"/>
    <path id="Path_1073" data-name="Path 1073" class="cls-12" d="M83.59,16.435c1.04,2.946-1.1,2.946-2.888,3-2.022.058-3-1.213-3-3.061-.058-1.848.924-3.177,2.888-3.177C82.608,13.2,84.514,13.547,83.59,16.435Zm-1.155.116a1.824,1.824,0,0,0-1.617-2.079c-1.04-.116-1.733.578-1.791,1.733a1.642,1.642,0,0,0,1.56,1.964C81.684,18.283,82.262,17.532,82.435,16.55Z" transform="translate(-32.797 -5.59)"/>
    <path id="Path_1074" data-name="Path 1074" class="cls-12" d="M95.4,13.765c-.924,1.675-2.426-.52-3.177,1.155,0,.693.809.52,1.213.693.982.347,2.079.462,2.079,1.964a1.8,1.8,0,0,1-1.329,1.675,3.534,3.534,0,0,1-3.292-.347c-.231-.173-.4-.4-.173-.693.231-.347.462-.52.924-.289a2.218,2.218,0,0,0,2.542-.289c-1.155-1.271-4.679-.751-3.177-3.524C91.933,12.263,93.782,12.841,95.4,13.765Z" transform="translate(-38.252 -5.462)"/>
    <path id="Path_1075" data-name="Path 1075" class="cls-12" d="M105.61,13.057c-1.271.231-2.195.578-2.137,2.253,0,1.791,1.329,1.5,2.311,1.906-.52,1.386-1.5,1.155-2.368.924a1.442,1.442,0,0,1-1.1-1.791c.751-1.791-1.906-3.177-.231-5.2.924-1.155,1.213-1.213,1.386,0C103.7,12.652,105.379,11.5,105.61,13.057Z" transform="translate(-42.86 -4.349)"/>
    <path id="Path_1076" data-name="Path 1076" class="cls-13" d="M510.258,4.9c.982.578.635,1.5.751,2.368h0c-.4-.058-.635-.982-1.04-.462A1.341,1.341,0,0,0,510.2,8.6c.693.4,1.848-.347,2.311.982a11.845,11.845,0,0,0,1.386,2.079c-1.1.693-2.657-.462-3.524.982C507.428,10.041,507.428,7.788,510.258,4.9Z" transform="translate(-214.608 -2.084)"/>
    <path id="Path_1077" data-name="Path 1077" class="cls-12" d="M129.7,16.213c0-2.137,2.2-3.87,4.043-3.061.4.173.924.4.809.982-.116.693-.635.52-1.1.347-1.617-.462-2.426.289-2.368,1.848.058,1.444,1.04,1.964,2.426,1.56.52-.173.924-.289,1.1.347.116.578-.347.809-.809.982A3.091,3.091,0,0,1,129.7,16.213Z" transform="translate(-54.762 -5.484)"/>
    <path id="Path_1078" data-name="Path 1078" class="cls-11" d="M122.372,16.031c.635-.635-1.155-2.715,1.329-2.657.751,0,1.791-1.04,2.253.058.4,1.1-.982.809-1.5,1.213-.924.751-.462,1.733-.578,2.657-.116.693.347,1.848-.693,1.906-1.1.058-.693-1.1-.809-1.791A11,11,0,0,1,122.372,16.031Z" transform="translate(-51.65 -5.475)"/>
    <path id="Path_1079" data-name="Path 1079" class="cls-12" d="M157.14,14.774c-1.617-.982-2.368-.289-2.657,1.329a15.247,15.247,0,0,0-.058,2.311c0,.4-.173.809-.578.866-.462.058-.693-.231-.693-.693a30.09,30.09,0,0,1,.058-4.563c.173-1.444,1.56-.347,2.368-.751,1.5-.809.52,1.444,1.56,1.5Z" transform="translate(-64.642 -5.546)"/>
    <path id="Path_1080" data-name="Path 1080" class="cls-13" d="M513,9c.058.058.173.116.231.173-.058-.058-.173-.116-.231-.173Z" transform="translate(-216.657 -3.816)"/>
  </g>
</svg>
