<svg xmlns="http://www.w3.org/2000/svg" viewBox="1683.195 1194.794 56.078 55.925">
  <defs>
    <style>
      .cls-1 {
        fill: #acd14d;
      }

      .cls-2 {
        fill: #fff;
      }
    </style>
  </defs>
  <g id="Group_2405" data-name="Group 2405" transform="translate(1633.391 1154)">
    <path id="Path_389" data-name="Path 389" class="cls-1" d="M5.412,50.763c3.473,3.524,14.964,5.107,22.522,5.158s18.9-1.226,22.879-5.158,5.209-15.117,5.26-22.624S54.746,9.294,50.967,5.412C47.085,1.531,36.973.05,28.291,0,19.558-.052,9.089,1.531,5.361,5.208S.049,19.712,0,27.781,1.071,46.371,5.412,50.763Z" transform="translate(49.808 40.797)"/>
    <g id="Group_319" data-name="Group 319" transform="translate(60.159 49.85)">
      <path id="Path_391" data-name="Path 391" class="cls-2" d="M28.1,42.9A13.29,13.29,0,0,0,41.838,55.106c7.1-.255,12.716-4.954,12.87-11.9C54.3,43.206,36.782,43.615,28.1,42.9Z" transform="translate(-24.102 -30.045)"/>
      <path id="Path_392" data-name="Path 392" class="cls-2" d="M50.264,32.762c-5.618.051-25.331-2.2-29.621-1.89-1.328.1,1.226,4.647,2.554,4.75.306.051.664.051,1.021.1,8.733.664,26.25.306,26.608.306h0S51.082,32.762,50.264,32.762Z" transform="translate(-20.272 -24.146)"/>
      <path id="Path_393" data-name="Path 393" class="cls-2" d="M27.826,23.536c5.771.2,20.735,1.532,25.842,1.583,1.328,0-.613-4.188-1.839-4.75-10.572-5.26-15.27-1.379-23.85.664C27.367,21.136,27.213,23.536,27.826,23.536Z" transform="translate(-23.777 -17.729)"/>
      <path id="Path_394" data-name="Path 394" class="cls-2" d="M41.487,68.1c-.766-.051-1.481.306-1.481.817L39.6,74.428c-.051.511.562.97,1.379,1.021.766.051,1.481-.306,1.481-.817l.409-5.516C42.866,68.606,42.253,68.146,41.487,68.1Z" transform="translate(-29.726 -42.371)"/>
      <path id="Path_395" data-name="Path 395" class="cls-2" d="M65.025,67.9c-.766.051-1.379.511-1.328,1.021l.46,5.516c.051.511.715.868,1.481.817s1.379-.511,1.328-1.021l-.46-5.516C66.455,68.2,65.791,67.844,65.025,67.9Z" transform="translate(-41.518 -42.273)"/>
      <path id="Path_396" data-name="Path 396" class="cls-2" d="M47.5,68.4l.051,5.771v.46l.051,6.026c0,.511.664.919,1.43.919s1.43-.409,1.43-.919l-.051-3.881a4.395,4.395,0,0,0,.817.051,4.13,4.13,0,0,0,.817-.051l.051,3.881c0,.511.664.919,1.43.919s1.43-.409,1.43-.919l-.051-6.026V68.3a15.855,15.855,0,0,1-3.524.511A13.93,13.93,0,0,1,47.5,68.4Z" transform="translate(-33.594 -42.473)"/>
    </g>
  </g>
</svg>
