<svg xmlns="http://www.w3.org/2000/svg" viewBox="-2361 4461.968 40 40.001">
  <defs>
    <style>
      .cls-1 {
        fill: #fff;
      }

      .cls-1, .cls-2 {
        fill-rule: evenodd;
      }

      .cls-2 {
        fill: #868686;
      }
    </style>
  </defs>
  <g id="twitter" transform="translate(-3174 4225)">
    <path id="twitter_bg" class="cls-1" d="M833,236.968a20,20,0,1,1-20,20A20,20,0,0,1,833,236.968Z"/>
    <path id="twitter_icn" class="cls-2" d="M840,252.527a5.559,5.559,0,0,1-1.646.468,2.959,2.959,0,0,0,1.262-1.643,5.642,5.642,0,0,1-1.823.721,2.828,2.828,0,0,0-2.1-.936,2.864,2.864,0,0,0-2.038.877,2.979,2.979,0,0,0-.834,2.091,3.141,3.141,0,0,0,.074.677,8.067,8.067,0,0,1-5.92-3.1,3.031,3.031,0,0,0,.889,3.962,2.79,2.79,0,0,1-1.3-.371v.038a2.947,2.947,0,0,0,2.306,2.91,2.791,2.791,0,0,1-1.3.052,2.891,2.891,0,0,0,2.682,2.061,5.646,5.646,0,0,1-3.566,1.27.893.893,0,0,1-.686-.042,7.919,7.919,0,0,0,4.4,1.336,8.1,8.1,0,0,0,5.816-2.479,8.435,8.435,0,0,0,2.357-5.965c0-.129,0-.257-.009-.385A5.932,5.932,0,0,0,840,252.527Z"/>
  </g>
</svg>
